<?xml version="1.0" standalone="no"?>
<!DOCTYPE svg PUBLIC "-//W3C//DTD SVG 1.1//EN" "http://www.w3.org/Graphics/SVG/1.1/DTD/svg11.dtd">
<svg xmlns="http://www.w3.org/2000/svg">
<metadata>Copyright (C) 2015 by original authors @ fontello.com</metadata>
<defs>
<font id="fontello" horiz-adv-x="1000" >
<font-face font-family="fontello" font-weight="400" font-stretch="normal" units-per-em="1000" ascent="850" descent="-150" />
<missing-glyph horiz-adv-x="1000" />
<glyph glyph-name="uni25FC" unicode="&#xe800;" d="m0 600h750v-750h-750v750z" horiz-adv-x="750" />
<glyph glyph-name="lozenge" unicode="&#xe801;" d="m960 159l-131-29 23-132-132 23-29-131-114 72-77-110-77 110-114-72-29 131-132-23 23 132-131 29 72 114-110 77 110 77-72 114 131 29-23 132 132-23 29 131 114-72 77 110 77-110 114 72 29-131 132 23-23-132 131-29-72-114 110-77-110-77z m-593 291h-33v-121-9q1-3 1-9l-104 133-3 3q0 1-1 1t-2 1q0 0-1 1t-2 0h-4-19v-199h32v122 8 9l104-133q2-4 5-5 2-1 8-1h19v199z m158 0h-126v-199h126v29h-89v57h70v28h-70v55h89v30z m298 0h-29q-5 0-8-3-3-1-5-5l-33-120q-2-6-4-19-3 11-6 19l-39 120q-2 4-4 6-4 2-8 2h-11q-5 0-8-3-1-1-4-5l-39-120-3-9q0-2-1-5t-2-6q0 3-2 11 0 3-2 9l-34 120q-2 5-4 6-4 2-8 2h-31l62-199h33l44 136 2 5q0 1 1 3t0 4q2-4 2-7l2-5 43-136h34z" horiz-adv-x="1000" />
<glyph glyph-name="notequal" unicode="&#xe802;" d="m200 350q0-103 73-177t177-73q23 0 50 5v-101q-32-4-50-4-71 0-135 28t-112 74-75 112-28 136 28 136 75 112 112 74 135 28q87 0 162-39t124-109 60-152h-101q-18 86-86 143t-159 57q-103 0-177-73t-73-177z m288 200l12-188q0-26-18-44t-45-18l-137 13v37l138 13 12 187h38z m405-207q7-9 7-18v-300q0-11-7-18t-18-7h-300q-10 0-18 7t-7 18v300q0 11 7 18t18 7h300q10 0 18-7z m-68-43h-200q-11 0-18-7t-7-18 7-18 18-7h200q11 0 18 7t7 18-7 18-18 7z m-250-250h300q-11 33-17 71t-7 58l-1 21h-250q0-75-25-150z m75 100h50v-50h-50v50z m100 0h50v-50h-50v50z" horiz-adv-x="1000" />
<glyph glyph-name="integral" unicode="&#xe803;" d="m125 475q-52 0-88-37t-37-88 37-88 88-37 88 37 37 88-37 88-88 37z m375 0q-52 0-88-37t-37-88 37-88 88-37 88 37 37 88-37 88-88 37z m375 0q-52 0-88-37t-37-88 37-88 88-37 88 37 37 88-37 88-88 37z" horiz-adv-x="1000" />
<glyph glyph-name="infinity" unicode="&#xe804;" d="m885 735q15-14 15-35v-700q0-21-14-36t-36-14h-700q-21 0-35 14t-15 36v700q0 21 15 36t35 14h700q21 0 35-15z m-210-85h-350q-10 0-18-7t-7-18 7-18 18-7h350q11 0 18 7t7 18-7 18-18 7z m-525-600h700q-22 112-35 224t-14 169l-1 57h-600q0-23-1-63t-14-158-35-229z m250 350h-100v-100h100v100z m150 0h-100v-100h100v100z m150 0h-100v-100h100v100z m-300-150h-100v-100h100v100z m150 0h-100v-100h100v100z m150 0h-100v-100h100v100z" horiz-adv-x="1000" />
<glyph glyph-name="radical" unicode="&#xe805;" d="m500 800q92 0 175-35t144-96 96-144 35-175-35-175-96-144-144-96-175-35-175 35-144 96-96 144-35 175 35 175 96 144 144 96 175 35z m0-800q66 0 127 24t106 65 77 98 37 122q-10 24-19 36-3 5-8 7t-7 2-8-1-7 0q-5 0-6-1t0-6 1-5q-5-9-12-15t-22-10-17-7q0 0-2 0h-2t-2-1-1-3h9q2 0 5 1t6 2 5-3q1-4 1-6t-2-5-3-6q-4-9-17-21t-14-13q-11-13-5-27 8-23-11-35-6-4-9-17t-6-17q-3-2-8-10t-11-11-12-5q-18-4-27 3t-14 30q-1 5-5 14t-4 14-2 14 3 16q3 8-9 25-5 7-6 11 0 2 2 7t-1 8-10 4q-2 0-10 2t-14 1q-41-12-63 24-5 8 0 32t14 30q5 3 11 13t10 13q2 1 1 3t-3 3q-4 2-5 5t-2 5 1 7 1 6q0 2 2 3t2 2 3 1 3 0h4 3q7 1 8 2t-2 11q-4 11-8 13t-14 0q-1 0-2 1t-2 3q-1 3 0 6t4 6 3 4 5 4 4 4q4 4 10 3t7-9q5-12 15-15 6-2 17 6 2 2 2 4t-1 3-2 3-2 4q-11 13 2 19 7 3 21 13t26 15 24 2q11 2 27-3t23-5q40-3 81 3 5 0 8 1-47 79-127 127t-175 47q-85 0-160-39t-123-106q5-5 12-4 1 0 3 0t3 1 0 1-4 4q-3 4 0 5t7 2q12-2 24-11 1-1 0 0 0 0-1 1-3 4 3 4l4-1q9-2 28-7t31-7 26-8 28-14q1-1 3-2t4-1 4-1 2-2 0-3q-2-7-16-16-1-1-4-2t-4-2-1-3q1-4 5-2t5 2q25-12 37-30l2-4q2-4 5-7 4-2 3-7-1-2-3-1-9 1-25-9t-28-5q-2 1-5 0t-3-3-4-5-2-4q-3-5-10-11t-12-10-8-12-1-17q0-1-1-4t-3-3q-3-1-8 6-5 9-12 10t-16-1-13-3q-3 1-6-2t-4-5-2-7q-3-11 7-19 6-5 15 4 7 7 15 3 3-1 2-6l-1-5q10-10 21-33 1-1 9 1 7 0 20 4t22 2q21-3 37-13t36-28q5-4 12-7t17-7 14-5q16-6 9-17-7-10-20-46-2-5-5-7-16-4-33-27t-24-29q-2-1-9-5t-11-7-8-9q-2-3-6-15t-10-16q-2-1 0-4t4-4q1 0 3-1t3-1 1-3q-2-5-11-5-14 0-23 12t-5 29q3 12 18 87 2 9-11 22-30 26-29 54v2q1 2 5 8t5 9 2 7-5 8-15 5q-7 2-21 13t-24 13q-8 2-13 3t-11 4-10 7-7 11q-2 5-5 5-22 10-39 31t-23 44q-8-40-8-74 0-71 28-136t74-112 112-74 136-28z m39 549q0-9-7-17t-17-12q-3-1-41-13-8-1-12-7-16-22-37-1-8 9-14 27-2 13-11 17t-22 4q-1 0-4-1t-5 0-4 1q-10 3-12 8 0 2 1 3t5 1 4 1q4 2 14 10t16 11 16 2q7-2 12 0t11 7 9 5q9 5 20 6t19 1 20-3 19-3q1 0 6-7 7-17 20-7 7 5 12-2 3-1 1-4t-1-2-2-2l-3-2q-10-6-13-21z m210-335q4 4 7 0t2-8q0-14-12-38-3-7-10-4-3 1-4 3t-1 5-1 4 0 6 0 7q-2 6 1 10t9 8 9 7z" horiz-adv-x="1000" />
<glyph glyph-name="product" unicode="&#xe806;" d="m837 688l1-1q41-41 55-95t0-108-55-96l-145-145q-62-62-149-62-42 0-81 16t-69 46l-1 1q-4 6-7 9l62 62q5 4 8 4t7-3l1-1q34-34 80-34t79 33l144 145q33 32 33 79t-33 79-79 33-79-33l-26-26q-50 24-115 27l70 70q30 30 69 46t81 16q87 0 149-62z m-674-676l-1 1q-41 41-55 95t0 109 55 95l145 145q62 62 149 62 42 0 81-16t69-46l1-1q4-6 7-9l-62-62q-5-4-8-4t-7 3l-1 1q-34 34-80 34t-79-33l-144-145q-33-32-33-79t33-79 79-33 79 33l26 26q50-24 115-27l-70-70q-30-30-69-46t-81-16q-87 0-149 62z" horiz-adv-x="1000" />
<glyph glyph-name="uni2206" unicode="&#xe807;" d="m551 25v250q-102 5-185-9t-133-40-88-59-55-66-27-62-11-46l-1-18q-1 7-1 18t1 47 7 71 20 80 38 86 61 79 89 66 123 42 162 11v250l400-350z" horiz-adv-x="1000" />
<glyph glyph-name="trademark" unicode="&#xe808;" d="m701 399q-99 0-171-68t-78-166l-26 19-232-168 89 269-232 164h286l89 273 88-273h287l-74-52q-17 2-26 2z m149-249q0-9-1-16 0-9 6-12l38-24q-4-18-19-47l-44 10q-8 1-13-4-12-16-23-24-7-5-5-12l10-45q-21-11-46-19l-24 38q-5 7-12 6-7-1-17-1-10 0-17 1-7 2-11-6l-25-38q-20 5-46 19l10 45q2 7-5 12-12 11-23 23-5 6-13 5l-44-10q-12 19-20 46l39 25q6 3 6 12-1 7-1 16 0 10 1 17 0 8-6 12l-39 25q7 25 20 45l44-9q9-2 13 4 9 12 23 24 7 5 5 12l-10 45q21 11 46 19l24-39q5-7 12-5 4 0 10 1t7 0 7 0 10-1q7-1 12 5l24 38q20-5 46-19l-10-44q-2-7 5-12 15-11 23-24 4-6 13-4l44 9q14-25 19-46l-38-24q-6-4-6-12 1-7 1-17z m-150-99q42 0 70 29t29 70-29 71-70 29q-41 0-71-29t-29-71q0-41 29-70t71-29z" horiz-adv-x="1000" />
<glyph glyph-name="guilsinglleft" unicode="&#xe809;" d="m374-1l149 700h102l-151-700h-100z m-74 122l-250 188v80l250 188v-125l-136-103 136-103v-125z m400 0l250 188v80l-250 188v-125l136-103-136-103v-125z" horiz-adv-x="1000" />
<glyph glyph-name="ellipsis" unicode="&#xe80a;" d="m409 675l40-30q-91-14-163-69t-108-139l-17 38q-15 32-10 66t28 61q42 48 101 82 31 17 66 15t63-24z m411-73q23-26 28-61t-9-66l-18-38q-35 83-108 139t-163 69l41 30q28 22 63 24t65-15q59-34 101-82z m-320-2q81 0 150-40t110-109 40-151q0-70-30-131t-83-103l12-40q-3-14-16-22-7-4-27-4l-27 30q-62-30-129-30-68 0-130 30l-28-30q-20 0-27 4-13 8-16 22l13 40q-52 42-82 103t-30 131q0 82 40 151t109 109 151 40z m0-500q83 0 141 59t59 141-59 141-141 59q-83 0-142-59t-58-141 58-141 142-59z m37 349l13-137q0-26-18-45t-45-18l-87 13v37l87 13 13 137h37z" horiz-adv-x="1000" />
<glyph glyph-name="bullet" unicode="&#xe80b;" d="m400 550h-300v100h400z m499-200q0-15-1-22-1-9 7-16l50-32q-9-34-25-61l-58 13q-11 2-17-6-13-18-31-31-8-6-6-17l13-58q-30-18-61-26l-32 51q-7 8-16 7-3 0-11-1t-11 0q-15 0-22 1-9 1-16-7l-32-51q-34 9-61 25l13 59q2 11-6 17-19 14-31 31-6 8-17 6l-59-13q-16 28-25 60l51 33q8 7 7 16-1 7-1 22t1 22q1 9-7 16l-51 32q9 33 25 61l59-13q11-2 17 6 12 17 31 31 8 6 6 17l-13 59q27 16 61 25l32-51q6-9 16-7 7 1 22 1t22-1q9-1 16 7l32 51q31-8 61-26l-13-58q-2-11 6-17 18-13 31-31 6-8 17-6l58 13q16-27 25-61l-50-32q-8-7-7-16 1-7 1-22z m-200-100q42 0 72 29t29 71-29 71-72 29q-41 0-71-29t-29-71 29-71 71-29z m-349 50h-250v100h250v-100z m150-250h-400v100h300z" horiz-adv-x="1000" />
<glyph glyph-name="dagger" unicode="&#xe80c;" d="m321 492l18 97q155-29 262-137t138-263l-98-18q-24 127-109 212t-211 109z m-35-196l17 97q98-17 161-79t79-161l-98-18q-23 139-159 161z m-36-196l18 98q31-5 53-27t27-53z" horiz-adv-x="1000" />
<glyph glyph-name="emdash" unicode="&#xe80d;" d="m800 200h-600l300 351z" horiz-adv-x="1000" />
<glyph glyph-name="florin" unicode="&#xe80e;" d="m500 700q-90 0-166-42l-73 73q112 69 239 69 92 0 175-35t144-96 96-144 35-175q0-127-69-239l-73 73q32 58 39 125-10 24-19 36-3 5-8 7t-7 2-8-1-7 0q-5 0-6-1t0-6 1-5q-5-9-12-15t-22-10-17-7q0 0-2 0h-2t-2-1-1-3h9q2 0 5 1t6 2 5-3q1-4 1-6t-2-5-3-6q-3-5-6-10t-10-10-8-8l-145 145q10 2 16-1t9-15q0-1 9-4 10-4 30-1t26-1q9-2 14-1t6 6q1 4-1 6t-5 1q-5-3-13 2t-12 8-13-7h-3q-3 9-15 10t-16 5q-7 7-14 9t-14 0-14-7l-21 21q0 0-1 2t-1 3q-5 15-17 14l-8 8q2 8 15 19 4 4 10 3t7-9q5-12 15-15 6-2 17 6 2 2 2 4t-1 3-2 3-2 4q-11 13 2 19 7 3 21 13t26 15 24 2q11 2 27-3t23-5q40-3 81 3 5 0 8 1-47 79-127 127t-175 47z m-376 97l824-824-71-70-824 823z m428-227q-10-6-13-21 0-9-7-17t-17-12q-6-3-33-10l-73 73q7-2 12 0t11 7 9 5q9 5 20 6t19 1 20-3 19-3q1 0 6-7 7-17 20-7 7 5 12-2 3-1 1-4t-1-2-2-2z m-52-570q89 0 167 42l72-73q-112-69-239-69-92 0-175 35t-144 96-96 144-35 175q0 127 69 239l42-41 166-166q-5-8-2-18 0-1-1-4t-3-3q-3-1-8 6-5 9-12 10t-16-1-13-3q-3 1-6-2t-4-5-2-7q-3-11 7-19 6-5 15 4 7 7 15 3 3-1 2-6l-1-5q10-10 21-33 1-1 9 1 7 0 20 4t22 2q21-3 37-13t36-28q1-1 2-1l45-45q-10-22-15-36-2-5-5-7-16-4-33-27t-24-29q-2-1-9-5t-11-7-8-9q-2-3-6-15t-10-16q-2-1 0-4t4-4q1 0 3-1t3-1 1-3q-2-5-11-5-14 0-23 12t-5 29q3 12 18 87 2 9-11 22-30 26-29 54v2q1 2 5 8t5 9 2 7-5 8-15 5q-7 2-21 13t-24 13q-8 2-13 3t-11 4-10 7-7 11q-2 5-5 5-22 10-39 30t-23 44q-8-40-8-73 0-71 28-136t74-112 112-74 136-28z" horiz-adv-x="1000" />
<glyph glyph-name="OE" unicode="&#xe80f;" d="m950 500q0-41-15-85t-42-86-59-83-71-79-75-70-71-60-60-46-41-31l-16-10q-6 4-16 11t-41 30-60 47-70 59-76 71-70 79-61 83-40 85-16 85q0 103 73 177t177 73q60 0 112-27t88-74q35 47 88 74t112 27q104 0 177-73t73-177z" horiz-adv-x="1000" />
<glyph glyph-name="oslash" unicode="&#xe810;" d="m400 550h-300v100h400z m499-200q0-15-1-22-1-9 7-16l50-32q-9-34-25-61l-58 13q-11 2-17-6-13-18-31-31-8-6-6-17l13-58q-30-18-61-26l-32 51q-7 8-16 7-3 0-11-1t-11 0q-15 0-22 1-9 1-16-7l-32-51q-34 9-61 25l13 59q2 11-6 17-19 14-31 31-6 8-17 6l-59-13q-16 28-25 60l51 33q8 7 7 16-1 7-1 22t1 22q1 9-7 16l-51 32q9 33 25 61l59-13q11-2 17 6 12 17 31 31 8 6 6 17l-13 59q27 16 61 25l32-51q6-9 16-7 7 1 22 1t22-1q9-1 16 7l32 51q31-8 61-26l-13-58q-2-11 6-17 18-13 31-31 6-8 17-6l58 13q16-27 25-61l-50-32q-8-7-7-16 1-7 1-22z m-200-100q42 0 72 29t29 71-29 71-72 29q-41 0-71-29t-29-71 29-71 71-29z m-349 50h-250v100h250v-100z m150-250h-400v100h300z" horiz-adv-x="1000" />
<glyph glyph-name="Idieresis" unicode="&#xe811;" d="m320 650h360q50 0 85-35t35-85v-360q0-49-35-85t-85-35h-360q-49 0-85 35t-35 85v360q0 50 35 85t85 35z m360-50h-360q-29 0-50-20t-20-50v-360q0-29 20-50t50-20h360q30 0 50 20t20 50v360q0 30-20 50t-50 20z" horiz-adv-x="1000" />
<glyph glyph-name="Iacute" unicode="&#xe812;" d="m902 702l22-45q-241-199-387-482-27-50-36-75-6 7-16 17-130 144-274 249l61 61q97-41 184-104 185 233 446 379z m-102-602v331q16 19 50 55v-386q0-62-44-106t-106-44h-450q-62 0-106 44t-44 106v450q0 63 44 106t106 44h450q17 0 45-7-6-5-58-43h-437q-41 0-71-29t-29-71v-450q0-41 29-71t71-29h450q42 0 71 29t29 71z" horiz-adv-x="1000" />
<glyph glyph-name="Igrave" unicode="&#xe813;" d="m834 651l17-34q-183-151-290-361-20-36-27-56-4 5-12 13-98 109-205 186l46 46q73-31 138-78 138 175 333 284z m-84-481v239q19 24 50 56v-295q0-49-35-85t-85-35h-360q-49 0-85 35t-35 85v360q0 50 35 85t85 35h360q2 0 6-1t6 0q-43-30-66-49h-306q-29 0-50-20t-20-50v-360q0-29 20-50t50-20h360q30 0 50 20t20 50z" horiz-adv-x="1000" />
<glyph glyph-name="AE" unicode="&#xe814;" d="m700 750q104 0 177-73t73-177q0-41-15-85t-42-86-59-83-71-79-75-70-71-60-60-46-41-31l-16-10q-6 4-16 11t-41 30-60 47-70 59-76 71-70 79-61 83-40 85-16 85q0 103 73 177t177 73q60 0 112-27t88-74q35 47 88 74t112 27z m0-100q-26 0-51-9t-44-25-36-33-30-36-21-33-14-24l-4-9q-1 3-4 9t-14 24-21 34-29 35-37 34-44 23-51 10q-63 0-106-44t-44-106q0-43 32-100t84-115 111-111 123-102q64 47 123 101t112 111 84 115 31 101q0 62-44 106t-106 44z" horiz-adv-x="1000" />
<glyph glyph-name="Aring" unicode="&#xe815;" d="m250 700h450q63 0 106-44t44-106v-450q0-62-44-106t-106-44h-450q-62 0-106 44t-44 106v450q0 63 44 106t106 44z m450-50h-450q-41 0-71-29t-29-71v-450q0-41 29-71t71-29h450q42 0 71 29t29 71v450q0 42-29 71t-71 29z" horiz-adv-x="1000" />
<glyph glyph-name="paragraph" unicode="&#xe816;" d="m625 725q0 52-37 88t-88 37-88-37-37-88 37-88 88-37 88 37 37 88z m0-375q0 52-37 88t-88 37-88-37-37-88 37-88 88-37 88 37 37 88z m0-375q0 52-37 88t-88 37-88-37-37-88 37-88 88-37 88 37 37 88z" horiz-adv-x="1000" />
<glyph glyph-name="uni00B5" unicode="&#xe817;" d="m940 117q10-51 10-117h-600q0 68 10 117 4 23 19 40t36 24q56 21 137 41 15 3 24 15t10 26q0 22-18 31-42 24-57 68l-9 26-11 6q-12 6-19 20-11 24-14 55-1 7 3 14t12 8l8 3q-1 4-1 14-1 7-1 21 0 67 53 107 26 19 57 25t61-4q-18 26-43 37 28 6 43 6 71 0 121-50t50-121q0-14-1-21 0-9-1-14l9-3q7-2 12-8t3-14q-3-28-14-55-6-14-19-20l-12-6-9-26q-15-43-57-68-18-9-18-31 0-15 9-26t25-15q82-19 137-41 21-7 36-25t19-39z m-689 33v100q-37 0-68-6t-52-14-35-20-25-21-13-19-7-14l-1-6q0 2 0 7t0 18 4 27 9 31 15 34 25 31 35 27 49 18 64 7v100l199-150z" horiz-adv-x="1000" />
<glyph glyph-name="plusminus" unicode="&#xe818;" d="m873 607q55-257 0-514-9-44-41-75t-75-41q-127-27-257-27t-257 27q-43 9-75 41t-41 75q-55 257 0 514 9 43 41 75t75 41q127 27 257 27t257-27q44-9 75-41t41-75z m-49-504q53 247 0 494-6 29-27 50t-50 27q-122 26-247 26t-247-26q-29-6-50-27t-27-50q-53-247 0-494 6-29 27-50t50-27q123-26 247-26t247 26q29 6 50 27t27 50z m-486 247q15 0 26-11t11-26q0-16-11-27t-26-11q-16 0-27 11t-11 27q0 15 11 26t27 11z m325 0q15 0 26-11t11-26q0-16-11-27t-26-11q-15 0-27 11t-11 27q0 15 11 26t27 11z m-60-156q8-6 10-16t-6-19q-8-9-19-9-10 0-16 6l-4 2q-3 2-9 5t-14 5-20 5-25 2-25-2-20-5-14-5-9-5l-4-2q-8-6-18-5t-17 8q-6 8-5 19t9 16q3 4 13 10t36 13 54 8 54-8 36-13 13-10z" horiz-adv-x="1000" />
<glyph glyph-name="registered" unicode="&#xe819;" d="m800 600l100-100-50-50-100 100-100-100-50 50 100 100-100 100 50 50 100-100 100 100 50-50z m0-450l-23-23q-26-27-65-29l-230-14q-38-2-65-29l-105-105q-71 31-126 86t-86 126l105 105q27 27 29 65l14 230q2 39 29 65l23 23z" horiz-adv-x="1000" />
<glyph glyph-name="logicalnot" unicode="&#xe81a;" d="m500 190q66 0 113 47t47 113h40q0-82-59-141t-141-59-141 59-59 141 59 141 141 59q44 0 82-18t66-49l33 66 19-4v-145h-145l-5 19 70 35q-22 26-53 41t-67 15q-66 0-113-47t-47-113 47-113 113-47z m0 260v-100h50v-25l-46-7q-16-2-28 9-12 12-10 27l9 96h25z" horiz-adv-x="1000" />
<glyph glyph-name="section" unicode="&#xe81b;" d="m200 350l250 250h100l-125-200h325v-100h-325l125-200h-100z" horiz-adv-x="1000" />
<glyph glyph-name="yen" unicode="&#xe81c;" d="m500 614l-267-165-183 147 265 173z m267-165l-267 165 185 155 265-173z m-534 0l267-165-185-154-265 172z m534 0l183-147-265-172-185 154z m-81-352l80 52v-58l-265-160-266 160v58l80-52 186 154z" horiz-adv-x="1000" />
<glyph glyph-name="sterling" unicode="&#xe81d;" d="m550 350h150l-350-550 100 350h-150l350 550z" horiz-adv-x="1000" />
<glyph glyph-name="cent" unicode="&#xe81e;" d="m1000 300h-400v-400h-150v400h-400v150h400v400h150v-400h400v-150z" horiz-adv-x="1000" />
<glyph glyph-name="z" unicode="&#xe81f;" d="m895 14q-19-40-59-59-14-7-30-4t-27 14l-196 196q28 28 42 64l-13 13v-1q-5-4-14-11t-13-12q-2-2-4-3-8-6-29-19-71-42-152-42-61 0-117 24t-95 64-64 95-24 117q0 82 40 151t109 109 151 40q61 0 117-24t96-63 64-96 23-117q0-65-26-122-7-14-4-29t14-27l201-201q11-11 14-27t-4-30z m-695 436q0-82 59-141t141-59 141 59 59 141-59 141-141 59-141-59-59-141z" horiz-adv-x="1000" />
<glyph glyph-name="y" unicode="&#xe820;" d="m611 450h290v290l-38 9-66-132q-56 63-133 98t-163 35q-82 0-155-32t-128-85-85-127-32-156h100q0 82 41 151t109 109 150 40q64 0 121-27t100-75l-120-60z m-220-200h-290v-290l38-9 66 132q56-63 133-98t163-35q82 0 156 32t127 85 85 127 32 155v1h-100v-1q0-81-40-150t-110-109-150-40q-64 0-121 27t-100 75l120 60z" horiz-adv-x="1000" />
<glyph glyph-name="x" unicode="&#xe821;" d="m121 600h758q21-21 21-50t-21-50h-758q-21 21-21 50t21 50z m0-200h758q21-21 21-50t-21-50h-758q-21 21-21 50t21 50z m0-200h758q21-21 21-50t-21-50h-758q-21 21-21 50t21 50z" horiz-adv-x="1000" />
<glyph glyph-name="w" unicode="&#xe822;" d="m750 650l-302-300 301-301q1-41-28-70t-71-29l-400 399 400 401q41 0 71-29t29-71z" horiz-adv-x="1000" />
<glyph glyph-name="v" unicode="&#xe823;" d="m255 449l-155 110h191l59 182 59-182h191l-154-110 21-67-50-50-67 49-154-112z m511 109h4q51-7 87-43t43-87q1-19-11-31l-351-351q-11-11-29-18l-208-69 69 208q6 17 18 29l351 351q11 11 27 11z m17-187l59 59q-6 26-25 45t-45 25l-59-59q45-26 70-70z m-287-288l245 245q-19 51-70 71l-246-246q7-26 26-44t45-26z" horiz-adv-x="1000" />
<glyph glyph-name="u" unicode="&#xe824;" d="m500 750q82 0 156-32t127-85 85-127 32-156-32-155-85-128-127-85-156-32-155 32-128 85-85 128-32 155 32 156 85 127 128 85 155 32z m0-75q-88 0-163-43t-118-119-44-163 44-163 118-118 163-44 163 44 119 118 43 163-43 163-119 119-163 43z m56-176q0 13-4 23-4 9-13 18-8 8-18 12-9 4-22 4-13 0-21-4-10-4-18-12-7-7-12-18-4-10-4-23 0-11 4-21 5-11 12-18t18-12q8-4 21-4 13 0 22 4 11 5 18 12 9 9 13 18 4 10 4 21z m-106-99v-250h100v250h-100z" horiz-adv-x="1000" />
<glyph glyph-name="t" unicode="&#xe825;" d="m500 750q82 0 156-32t127-85 85-127 32-156-32-155-85-128-127-85-156-32-155 32-128 85-85 128-32 155 32 156 85 127 128 85 155 32z m122-211l54 84q-79 52-176 52-98 0-176-52l54-84q58 36 122 36t122-36z m-311-67l-84 54q-52-78-52-176t52-176l84 54q-36 58-36 122t36 122z m378-244l84-54q52 78 52 176t-52 176l-84-54q36-57 36-122t-36-122z m-63 41q24 36 24 81t-24 81q-18 27-45 45-36 24-81 24t-81-24q-27-18-45-45-24-36-24-81t24-81q18-27 45-45 36-24 81-24t81 24q27 18 45 45z m-248-108l-54-84q78-52 176-52t176 52l-54 84q-57-36-122-36t-122 36z" horiz-adv-x="1000" />
<glyph glyph-name="s" unicode="&#xe826;" d="m730 414q14-18 30-43 19-30 16-65t-29-60l-54-54-351 351 54 54q25 25 60 28t64-15q24-14 44-30 15-11 33-10t32 15l165 165q37-12 65-41t41-65l-165-165q-13-14-14-32t9-33z m45 236q-11 0-18-7t-7-18 7-18 18-7 18 7 7 18-7 18-18 7z m-468-142l351-351q-97-98-158-207-57 33-111 75 66 113 111 172-72-72-137-151-160 129-263 304 112 63 207 158z" horiz-adv-x="1000" />
<glyph glyph-name="r" unicode="&#xe827;" d="m900 350h-75q0 88-43 163t-119 119-163 43v75q82 0 156-32t127-85 85-127 32-156z m-100-200l-23-23q-26-27-65-29l-230-14q-38-2-65-29l-105-105q-71 31-126 86t-86 126l105 105q27 27 29 65l14 230q2 39 29 65l23 23z m-50 200h-75q0 72-51 124t-124 51v75q104 0 177-73t73-177z" horiz-adv-x="1000" />
<glyph glyph-name="p" unicode="&#xe828;" d="m900 650v-100h-500v100h500z m-500-350h-100v-100h-100v100h-100v100h100v100h100v-100h100v-100z m100 100h400v-100h-400v100z m-100-250h500v-100h-500v100z" horiz-adv-x="1000" />
<glyph glyph-name="o" unicode="&#xe829;" d="m635 650h203q26 0 44-19t18-45v-572q0-27-18-45t-44-19h-676q-26 0-44 19t-18 45v572q0 27 18 45t44 19h203l74 74q25 25 61 25t61-25z m-200 0h130l-39 39q-11 10-26 10t-26-10z m365-100h-600v-450l150 150 50-50 200 200 200-200v350z m-450-200q-21 0-35 14t-15 36 15 35 35 15 36-15 14-35-14-36-36-14z" horiz-adv-x="1000" />
<glyph glyph-name="n" unicode="&#xe82a;" d="m600 200h100v-150q0-21-14-35t-36-15h-450q-21 0-35 15t-15 35v600q0 21 15 35t35 15h450q20 0 35-15t15-35v-150h-100v100h-350v-500h350v100z m200-50v150h-299v100h299v150l200-199z" horiz-adv-x="1000" />
<glyph glyph-name="m" unicode="&#xe82b;" d="m749 150h-550v25q0 39 30 62 52 41 61 107l27 188q31 20 74 32 8 1 8 11 0 31 22 53t53 22 53-22 22-53v-2q0-6 7-10 45-12 75-32l27-187q10-66 61-107 30-23 30-62v-25z m-275 400q11 0 18 7t7 18-7 18-18 7-18-7-7-18 7-18 18-7z m-70-450h140q5-13 5-25 0-31-22-53t-53-22-53 22-22 53q0 12 5 25z" horiz-adv-x="1000" />
<glyph glyph-name="l" unicode="&#xe82c;" d="m812 224q38-30 38-78v-46h-700v46q0 48 38 78 66 54 78 136l34 240q48 30 100 43 11 3 18 12t7 20q0 31 22 53t53 22 53-22 22-53q0-11 7-21t18-12q55-14 100-43l34-238q12-83 78-137z m-312 476q-11 0-18-7t-7-18 7-18 18-7 18 7 7 18-7 18-18 7z m0-750q-41 0-71 29t-29 71h200q0-41-29-71t-71-29z" horiz-adv-x="1000" />
<glyph glyph-name="k" unicode="&#xe82d;" d="m839 70q12-62 12-120h-700q0 59 12 120 5 26 22 46t41 29q82 29 161 47 17 3 28 17t11 32q0 24-21 35-47 28-67 80-7 23-10 30l-13 7q-14 7-22 23-14 35-16 64-1 8 4 16t13 10l10 3q-2 15-2 17-1 8-1 24 0 37 16 70t47 55q29 23 65 29t72-4q-19 27-51 43 30 7 51 7 83 0 141-59t59-141q0-16-1-24 0-5-2-17l11-3q8-3 13-10t4-16q-2-29-16-64-8-16-22-23l-15-7-9-30q-18-50-67-80-21-11-21-35 0-18 11-32t28-17q78-17 161-47 24-9 41-29t22-46z" horiz-adv-x="1000" />
<glyph glyph-name="j" unicode="&#xe82e;" d="m851 500h-58l-42-550h-500l-42 550h-58v62q0 17 11 30t27 18q83 21 168 31l44 109h200l44-109q85-10 168-31 17-4 27-18t11-30v-62z m-414 200l-19-54q83 6 167 0l-18 54h-130z m256-200h-384l35-450h314z m-279-400l-27 350h50l27-350h-50z m174 0h-50l26 350h51z" horiz-adv-x="1000" />
<glyph glyph-name="i" unicode="&#xe82f;" d="m200 700h600q21 0 35-15t15-35v-600q0-21-15-35t-35-15h-600q-21 0-35 15t-15 35v600q0 21 15 35t35 15z m50-100v-500h500v500h-500z m350-250l-250 200v-400z" horiz-adv-x="1000" />
<glyph glyph-name="h" unicode="&#xe830;" d="m800 650v-300l-115 115-164-165h-71v71l165 164-115 115h300z m-150-350h100v-150q0-21-14-36t-36-14h-400q-21 0-36 14t-14 36v400q0 21 14 36t36 14h150v-100h-100v-300h300v100z" horiz-adv-x="1000" />
<glyph glyph-name="g" unicode="&#xe831;" d="m500 50q81 0 150 41t110 109 40 150h100q0-81-32-155t-85-128-127-85-156-32-155 32-128 85-85 128-32 155 32 156 85 127 128 85 155 32q87 0 163-35t133-97l66 131 38-9v-290h-290l-9 38 120 60 2 2q-42 47-100 73t-123 27q-81 0-150-40t-109-110-41-150 41-150 109-109 150-41z" horiz-adv-x="1000" />
<glyph glyph-name="f" unicode="&#xe832;" d="m500 50q81 0 150 41t110 109 40 150h100q0-81-32-155t-85-128-127-85-156-32-155 32-128 85-85 128-32 155 32 156 85 127 128 85 155 32q87 0 163-35t133-98l66 132 38-9v-290h-290l-9 38 121 60q-41 48-99 75t-123 27q-81 0-150-40t-109-110-41-150 41-150 109-109 150-41z m0 500v-200l101-101-35-35-120 89q-24 19-19 46l23 201h50z" horiz-adv-x="1000" />
<glyph glyph-name="e" unicode="&#xe833;" d="m376 725l44-33q-96-20-171-81t-115-149l-22 49q-16 34-11 71t30 65q46 52 108 87 32 18 70 16t67-25z m492-78q25-29 30-66t-10-70l-22-49q-39 88-114 149t-172 81l44 33q30 23 67 25t70-16q63-36 107-87z m-18-347q0-77-31-145t-88-118l19-61q-5-15-17-22-6-4-26-4l-39 43q-80-43-168-43t-168 43l-39-43q-20 0-27 4-13 8-16 22l19 62q-56 49-88 117t-31 145q0 71 28 136t74 112 112 74 136 28 136-28 112-74 74-112 28-136z m-350-250q104 0 177 73t73 177-73 177-177 73-177-73-73-177 73-177 177-73z m37 450l13-188q0-26-18-44t-45-18l-137 13v37l137 13 13 187h37z" horiz-adv-x="1000" />
<glyph glyph-name="d" unicode="&#xe834;" d="m506 388q154 195 375 319l19-38q-204-169-326-405-20-37-30-63l-14 14q-107 119-230 209l52 52q86-38 154-88z m244-238v294q44 55 99 111 1-2 1-5v-400q0-63-44-106t-106-44h-400q-63 0-106 44t-44 106v400q0 63 44 106t106 44h400q27 0 57-11-47-33-115-89h-342q-21 0-36-14t-14-36v-400q0-21 14-36t36-14h400q21 0 36 14t14 36z" horiz-adv-x="1000" />
<glyph glyph-name="c" unicode="&#xe835;" d="m885 735q15-14 15-35v-700q0-21-14-36t-36-14h-700q-21 0-35 14t-15 36v700q0 21 15 36t35 14h700q21 0 35-15z m-210-85h-350q-10 0-18-7t-7-18 7-18 18-7h350q11 0 18 7t7 18-7 18-18 7z m-525-600h700q-22 112-35 224t-14 169l-1 57h-600q0-23-1-63t-14-158-35-229z m225 147h107v-47h-182v43l82 67q23 20 33 32t9 27q0 16-9 24t-24 8q-14 0-24-8t-26-25l-38 31q19 26 40 39t52 12q38 0 62-21t23-55v-1q0-29-14-48t-51-47z m149 199h177v-41l-110-205h-61l110 199h-116v47z" horiz-adv-x="1000" />
<glyph glyph-name="b" unicode="&#xe836;" d="m885 735q15-14 15-35v-700q0-21-14-36t-36-14h-700q-21 0-35 14t-15 36v700q0 21 15 36t35 14h700q21 0 35-15z m-1035-35l150-150v-50l-100 38v-138h-100v137l-100-37v50z m825-50h-350q-10 0-18-7t-7-18 7-18 18-7h350q11 0 18 7t7 18-7 18-18 7z m-525-600h700q-22 112-35 224t-14 169l-1 57h-600q0-23-1-63t-14-158-35-229z m225 147h107v-47h-182v43l82 67q23 20 33 32t9 27q0 16-9 24t-24 8q-14 0-24-8t-26-25l-38 31q19 26 40 39t52 12q38 0 62-21t23-55v-1q0-29-14-48t-51-47z m326 199v-41l-110-205h-61l110 199h-116v47h177z m-801-233l100 37v-50l-150-150-150 150v50l100-38v138h100v-137z" horiz-adv-x="1000" />
<glyph glyph-name="a" unicode="&#xe837;" d="m607 400h-101l147 350h93l148-350h-103l-25 63h-134z m-307 300l150-150v-50l-100 38v-138h-100v137l-100-37v50z m360-162h78l-39 98z m-310-375l100 37v-50l-150-150-150 150v50l100-38v138h100v-137z m199 137h303v-70l-175-198h175v-82h-309v70l176 198h-170v82z" horiz-adv-x="1000" />
<glyph glyph-name="underscore" unicode="&#xe838;" d="m200 500h600l-300-351z" horiz-adv-x="1000" />
<glyph glyph-name="backslash" unicode="&#xe839;" d="m977 783l23-47q-254-211-407-507-23-42-38-79-6 7-17 18-133 149-288 261l65 65q100-42 193-109 195 245 469 398z m-177-683v276q38 54 100 125v-401q0-62-44-106t-106-44h-500q-62 0-106 44t-44 106v500q0 63 44 106t106 44h495q-49-35-123-100h-372q-21 0-35-15t-15-35v-500q0-20 15-35t35-15h500q21 0 35 15t15 35z" horiz-adv-x="1000" />
<glyph glyph-name="Z" unicode="&#xe83a;" d="m900 400l-43-258q-3-18-17-30t-32-12h-28l-39 200h-482l-39-200h-28q-18 0-32 12t-17 30l-43 258 61 122q15 28 45 28h44v150h500v-150h44q30 0 45-28z m-600 100h400v150h-400v-150z m1-250l-50-250h498l-50 250h-398z" horiz-adv-x="1000" />
<glyph glyph-name="Y" unicode="&#xe83b;" d="m850 450v-550h-700v550h100v100q0 104 73 177t177 73 177-73 73-177v-100h100z m-500 100v-100h300v100q0 63-44 106t-106 44-106-44-44-106z m400-200h-500v-350h500v350z m-275-300v107q-25 13-25 43 0 21 15 36t35 14 35-14 15-36q0-30-25-43v-107h-50z" horiz-adv-x="1000" />
<glyph glyph-name="X" unicode="&#xe83c;" d="m900 700v-700h-800v700h800z m-700-100v-25q135-135 300-225 165 90 300 225v25h-600z m600-100l-300-300-300 300v-400h600v400z" horiz-adv-x="1000" />
<glyph glyph-name="W" unicode="&#xe83d;" d="m838 70q12-62 12-120h-700q0 59 12 120 5 26 22 46t41 29q82 29 161 47 17 3 28 17t11 32q0 24-21 35-47 28-67 80-7 23-10 30l-13 7q-14 7-22 23-14 35-16 64-1 8 4 16t13 10l10 3q-2 15-2 17-1 8-1 24 0 37 16 70t47 55q29 23 66 29t71-4q-19 27-51 43 30 7 51 7 83 0 141-59t59-141q0-16-1-24 0-2-2-17l11-3q8-3 13-10t4-16q-2-29-16-64-8-16-22-23l-15-7-9-30q-18-50-67-80-21-11-21-35 0-18 11-32t28-17q79-18 161-47 24-9 41-29t22-46z m-638 230h-100v-100h-100v100h-100v100h100v100h100v-100h100v-100z" horiz-adv-x="1000" />
<glyph glyph-name="V" unicode="&#xe83e;" d="m303 101l-101-101-54 53 91 90q-101 80-138 204l-1 3 1 3q40 132 151 214t248 82h2q108-2 195-50l101 101 54-53-91-90-96-95-73-73-131-131-73-73z m197 448q-82 0-141-58t-59-141q0-60 35-112l73 73q-8 20-8 39 0 42 29 71t71 29q19 0 39-8l73 73q-52 34-112 34z m196-162l119 118q61-70 85-155-25-87-85-155t-140-105-173-39h-2q-61 0-122 19l85 84q21-3 37-3 83 0 141 58t59 141q0 19-4 37z" horiz-adv-x="1000" />
<glyph glyph-name="U" unicode="&#xe83f;" d="m500 650h2q138-1 249-84t149-216q-39-132-149-216t-249-84h-2q-138 0-248 83t-151 214l-1 3 1 3q40 132 151 215t248 82z m0-500q83 0 141 59t59 141-59 141-141 59-141-59-59-141 59-141 141-59z m0 300q42 0 71-29t29-71-29-71-71-29-71 29-29 71 29 71 71 29z" horiz-adv-x="1000" />
<glyph glyph-name="T" unicode="&#xe840;" d="m641 650h159q21 0 35-15t15-35v-600q0-21-15-36t-35-14h-600q-21 0-35 14t-15 36v600q0 21 15 35t35 15h159q16 0 29 9t18 24q10 30 35 48t59 19 59-19 35-48q5-15 18-24t29-9z m109-100h-500v-100h500v100z m-400-200h-100v-100h100v100z m400 0h-300v-100h300v100z m-400-200h-100v-100h100v100z m400 0h-300v-100h300v100z" horiz-adv-x="1000" />
<glyph glyph-name="S" unicode="&#xe841;" d="m550 81l247 245q21 0 37-16t16-38l-246-244q-38-37-87-57t-101-20-101 20-87 57q-37 37-57 86t-20 101q0 53 20 100t58 86l298 295q37 36 85 49t98 0 85-49q56-55 56-133t-56-133l-298-295q-33-33-80-33t-81 33q-33 33-33 80 0 46 33 80l261 257q23 0 38-16t16-38l-261-257q-11-11-11-26t11-27 27-11 27 11l298 295q33 33 33 80t-33 80-80 33-81-33l-299-295q-54-55-56-133 0-78 56-134 56-55 134-55t134 55z" horiz-adv-x="1000" />
<glyph glyph-name="R" unicode="&#xe842;" d="m749 599q51-52 51-124t-51-124l-118-118q-31-31-76-31-44 0-75 31-31 32-31 75t31 74l119 119q23 0 38-15t16-38l-119-118q-10-10-10-22 0-11 9-22 10-9 23-9 13 0 22 9l118 118q29 30 29 71t-29 71-71 29-71-29l-250-250q-29-29-29-71t29-71 71-29 71 29l21 22q21 0 37-16t16-37l-21-22q-51-51-124-51t-124 51q-51 52-51 124t51 124l250 250q51 51 124 51t124-51z" horiz-adv-x="1000" />
<glyph glyph-name="Q" unicode="&#xe843;" d="m813 662h-1q60-60 88-136l-36-74q-6-12-18-17t-25 2q-25 11-50 5t-42-28l-64-87q-18-24-19-54t14-55q18-29 14-64t-29-58l-45-46-400 400 46 45q24 25 58 29t64-14q26-15 56-14t53 19l87 64q21 17 28 42t-5 50q-6 12-2 25t17 18l74 36q76-28 137-88z m-446-520l-142-142-125-50 50 125 177 177z" horiz-adv-x="1000" />
<glyph glyph-name="P" unicode="&#xe844;" d="m885 735q15-14 15-35v-700q0-21-14-36t-36-14h-700q-21 0-35 14t-15 36v700q0 21 15 36t35 14h700q21 0 35-15z m-210-85h-350q-10 0-18-7t-7-18 7-18 18-7h350q11 0 18 7t7 18-7 18-18 7z m-525-600h700q-22 112-35 224t-14 169l-1 57h-600q0-23-1-63t-14-158-35-229z m150 350h100v-100h-100v100z m150 0h100v-100h-100v100z m150 0h100v-100h-100v100z m-300-150h100v-100h-100v100z m150 0h100v-100h-100v100z m150 0h100v-100h-100v100z" horiz-adv-x="1000" />
<glyph glyph-name="O" unicode="&#xe845;" d="m700 550v-125q0-10 7-18t18-7v-100h-1q-10 0-17-6t-8-16q-7-62-48-109t-101-62v-36q0-19 13-33t31-17q51-6 106-21v-50h-400v50q55 15 106 21 18 2 31 17t13 33v36q-59 15-101 62t-48 109q-1 10-8 16t-17 6h-1v100q10 0 18 8 7 6 7 18v124q0 83 59 142t141 58 141-58 59-142z m-100-150v150q0 42-29 71t-71 29-71-29-29-71v-150h200z" horiz-adv-x="1000" />
<glyph glyph-name="N" unicode="&#xe846;" d="m720 750h6q68-9 116-57t56-116q3-24-14-42l-467-468q-16-16-40-24l-277-93 93 278q8 24 24 40l467 468q15 14 36 14z m23-250l79 79q-8 36-34 61t-60 33l-79-79q62-32 94-94z m-384-384l328 328q-12 33-37 57t-57 37l-328-328q10-34 35-59t59-35z" horiz-adv-x="1000" />
<glyph glyph-name="M" unicode="&#xe847;" d="m1000 300h-450v-450h-100v450h-450v100h450v450h100v-450h450v-100z" horiz-adv-x="1000" />
<glyph glyph-name="L" unicode="&#xe848;" d="m541 203q20-7 33-23t17-36q9-49 9-144h-550q0 90 10 144 5 20 18 36t32 23q61 22 126 37 14 3 22 14t9 24q0 18-16 28-38 23-53 62-1 4-4 12t-4 12l-10 5q-11 6-17 18-10 24-13 51-1 7 3 12t10 8l8 3q0 2-1 6t0 7q-1 6-1 19 0 29 13 54t36 43q23 18 52 23t56-3q-13 21-40 34 24 5 40 5 65 0 110-46t46-110v-19q-1-3-1-7t-1-6l9-3q6-2 10-8t3-12q-3-27-13-51-6-12-17-18l-11-5q-1-4-4-12t-4-12q-13-39-52-62-17-10-17-28 0-13 9-24t22-14q66-15 126-37z m404-98q5-29 5-105h-300q0 105-10 154-2 12-11 33 2 0 8 2t7 2q16 3 24 18 8 13 3 29-2 5-6 5-50 9-89 31 15 29 19 52t-2 37-11 42-6 56q0 28 13 53t34 41 49 22 54-4q-13 21-38 32 20 6 38 6 62 0 105-44t44-106q0-29-6-56t-10-42-2-37 18-52q-39-21-88-31-6 0-7-5-4-17 4-29 9-15 23-18 50-12 91-29 19-6 31-22t16-35z" horiz-adv-x="1000" />
<glyph glyph-name="K" unicode="&#xe849;" d="m900 650v-100h-800v100h800z m0-250v-100h-800v100h800z m0-250v-100h-800v100h800z" horiz-adv-x="1000" />
<glyph glyph-name="J" unicode="&#xe84a;" d="m500 749q82 0 156-28t127-74 85-112 32-136-32-136-85-111-128-75-156-28q-35-70-102-110t-146-39h-2q28 19 44 49t15 63q1 31-13 60t-37 49q-73 49-116 122t-42 156q0 71 32 136t85 112 128 74 155 28z m0-600q81 0 150 33t110 91 40 126-40 125-110 91-150 34-150-34-109-91-41-125 41-126 109-91 150-33z" horiz-adv-x="1000" />
<glyph glyph-name="I" unicode="&#xe84b;" d="m500 750q82 0 156-28t127-75 85-112 32-136-32-136-85-111-128-75-156-28q-35-69-102-110t-146-40h-2q6 8 20 25t17 24 11 18 9 23 2 23q1 33-14 63t-41 50q-71 49-112 121t-41 153q0 71 32 136t85 112 128 75 155 28z" horiz-adv-x="1000" />
<glyph glyph-name="H" unicode="&#xe84c;" d="m921 759l29-56q-306-254-489-609-28-53-46-94l-20 22q-155 173-345 313l77 77q125-53 232-131 230 292 562 478z" horiz-adv-x="1000" />
<glyph glyph-name="G" unicode="&#xe84d;" d="m700 600q104 0 177-73t73-177-73-177-177-73q-80 0-146 48 31 37 50 88 43-36 96-36 63 0 106 44t44 106-44 106-106 44q-62 0-100-42t-50-108q-9-53-28-97t-50-79-74-54-98-20q-104 0-177 73t-73 177 73 177 177 73q80 0 146-48-31-37-50-88-42 36-96 36-63 0-106-44t-44-106 44-106 106-44q62 0 100 42t50 108q8 43 20 79t32 68 47 54 65 36 86 13z" horiz-adv-x="1000" />
<glyph glyph-name="F" unicode="&#xe84e;" d="m885 736q15-15 15-36v-700q0-21-15-35t-35-15h-700q-21 0-35 15t-15 35v700q0 21 15 36t35 14h700q21 0 35-14z m-210-86h-350q-10 0-18-7t-7-18q0-10 7-18t18-7h350q11 0 18 7t7 18q0 11-7 18t-18 7z m-525-600h700q-22 112-35 224t-14 169l-1 57h-600q0-23-1-63t-14-158-35-229z m150 350h400v-100h-400v100z m0-150h400v-100h-400v100z" horiz-adv-x="1000" />
<glyph glyph-name="E" unicode="&#xe84f;" d="m885 735q15-14 15-35v-700q0-21-14-36t-36-14h-700q-21 0-35 14t-15 36v700q0 21 15 35t35 15h700q21 0 35-15z m-210-85h-350q-10 0-18-7t-7-18 7-18 18-7h350q11 0 18 7t7 18-7 18-18 7z m-525-600h700q-22 112-35 224t-14 169l-1 57h-600q0-23-1-63t-14-158-35-229z" horiz-adv-x="1000" />
<glyph glyph-name="D" unicode="&#xe850;" d="m382 450h-382l309-219-118-357 309 223 309-226-118 361 309 218h-382l-118 364z" horiz-adv-x="1000" />
<glyph glyph-name="C" unicode="&#xe851;" d="m618 458h382l-309-219 118-360-309 226-309-224 118 358-309 219h382l118 363z m-182-75h-200l116-83 46-32-18-52-45-138 165 120 165-121-45 139-18 53 46 32 116 82h-200l-64 196z" horiz-adv-x="1000" />
<glyph glyph-name="B" unicode="&#xe852;" d="m839 70q11-66 11-120h-700q0 59 12 120 6 26 22 46t42 29q76 28 160 47 17 3 28 17t11 32q0 24-20 35-49 28-67 80-3 7-10 30l-14 7q-15 8-21 23-14 33-17 64-1 8 4 16t13 10l10 3-2 17q0 4-1 12t0 12q0 37 16 70t47 55q29 23 66 29t71-4q-19 28-50 43 29 7 50 7 83 0 142-59t58-141q0-16-1-24 0-3 0-8t-1-9l10-3q8-3 13-10t4-16q-3-34-16-64-8-16-22-23l-14-7q-3-7-10-30-18-52-67-80-21-11-21-35 0-17 11-31t28-18q84-19 161-47 25-9 42-29t22-46z m-789 80v125q-52 3-93-4t-66-20-45-30-27-32-13-32-6-23 0-9q0 3 0 9t3 24 6 35 13 41 20 43 32 39 43 33 59 21 74 5v125l200-175z" horiz-adv-x="1000" />
<glyph glyph-name="A" unicode="&#xe853;" d="m900 250l-50-250h-700l-50 250 100 450h600z m-300 50h205l-55 350h-500l-50-350h200l-5-50 5-25q2-11 11-18t20-7h138q11 0 20 7t11 18l5 25z m-300 200l-10 100h420l-10-100h-400z m-35-50h470l-10-100h-450z" horiz-adv-x="1000" />
<glyph glyph-name="at" unicode="&#xe854;" d="m500 250l-250 250v100l200-125v275h100v-275l200 125v-100z m-41-100h-359v100h259l70-71z m441 100v-100h-359l30 29 70 71h259z m0-200h-800v-100h800v100z" horiz-adv-x="1000" />
<glyph glyph-name="greater" unicode="&#xe855;" d="m900 250l-50-250h-700l-50 250 100 450h600z m-650 400l-50-350h200l-5-50 5-25q2-11 11-18t20-7h138q11 0 20 7t11 18l5 25-5 50h205l-55 350h-500z m450-150h-400l-10 100h420z" horiz-adv-x="1000" />
<glyph glyph-name="less" unicode="&#xe856;" d="m900 250l-50-250h-700l-50 250 100 450h600z m-650 400l-50-350h200l-5-50 5-25q2-11 11-18t20-7h138q11 0 20 7t11 18l5 25-5 50h205l-55 350h-500z" horiz-adv-x="1000" />
<glyph glyph-name="colon" unicode="&#xe857;" d="m600 400h-250l125 200z m0-100l-125-200-125 200h250z" horiz-adv-x="1000" />
<glyph glyph-name="nine" unicode="&#xe858;" d="m498 850q102 0 194-40t160-106 107-160 39-194-39-194-107-160-160-106-194-40-194 40-160 106-106 160-40 194 40 194 106 160 160 106 194 40z m250-450v194l-26 6-40-81q-35 38-83 60t-101 21q-103 0-177-73t-73-177 73-177 177-73q90 0 159 57t86 143h-52q-17-65-70-108t-123-42q-82 0-141 59t-59 141 59 141 141 59q46 0 86-19t68-54l-103-52 5-25h194z" horiz-adv-x="1000" />
<glyph glyph-name="eight" unicode="&#xe859;" d="m500 850q102 0 194-40t160-106 106-160 40-194-40-194-106-160-160-106-194-40-194 40-160 106-106 160-40 194 40 194 106 160 160 106 194 40z m0-950q92 0 175 35t144 96 96 144 35 175-35 175-96 144-144 96-175 35-175-35-144-96-96-144-35-175 35-175 96-144 144-96 175-35z m250 694v-194h-194l-5 25 103 52q-29 34-69 54t-85 19q-82 0-141-59t-59-141 59-141 141-59q69 0 123 42t70 108h52q-17-86-86-143t-159-57q-103 0-177 73t-73 177 73 177 177 73q53 0 101-22t83-59l40 81z" horiz-adv-x="1000" />
<glyph glyph-name="seven" unicode="&#xe85a;" d="m551 425l103 52q-29 34-69 54t-85 19q-82 0-141-59t-59-141q0-83 59-142t141-58q72 0 125 39t68 111h52q-9-37-31-73t-54-64-74-46-86-17q-103 0-177 73t-73 177 73 177 177 73q54 0 101-22t83-60l40 82 26-6v-194h-194z" horiz-adv-x="1000" />
<glyph glyph-name="six" unicode="&#xe85b;" d="m500 700q71 0 136-28t112-74 74-112 28-136-28-136-74-112-112-74-136-28-136 28-112 74-74 112-28 136 28 136 74 112 112 74 136 28z m57-350l99 99-57 57-99-99-99 99-57-57 99-99-99-99 57-57 99 99 99-99 57 57z" horiz-adv-x="1000" />
<glyph glyph-name="five" unicode="&#xe85c;" d="m500 700q71 0 136-28t112-74 74-112 28-136-28-136-74-112-112-74-136-28-136 28-112 74-74 112-28 136 28 136 74 112 112 74 136 28z m0-650q82 0 151 40t109 109 40 151-40 151-109 109-151 40-151-40-109-109-40-151 40-151 109-109 151-40z m156 399l-99-99 99-99-57-57-99 99-99-99-57 57 99 99-99 99 57 57 99-99 99 99z" horiz-adv-x="1000" />
<glyph glyph-name="four" unicode="&#xe85d;" d="m648 150l-148 148-148-148-52 52 148 148-148 148 52 52 148-148 148 148 52-52-148-148 148-148z" horiz-adv-x="1000" />
<glyph glyph-name="three" unicode="&#xe85e;" d="m700 550h150q21 0 36-14t14-36v-450q0-21-14-35t-36-15h-550q-21 0-36 15t-14 35v150h-100q-21 0-35 15t-15 35v400q0 21 15 35t35 15h500q21 0 36-15t14-35v-100z m-450-250v200q0 21 14 36t36 14h300v50h-400v-300h50z m550 150h-450v-350l100 100 50-50 200 200 100-100v200z m-300-100q0 21-14 35t-36 15-35-15-15-35 15-35 35-15 36 15 14 35z" horiz-adv-x="1000" />
<glyph glyph-name="two" unicode="&#xe85f;" d="m694 450l-38-200h150l-18-100h-151l-28-150h-100l28 150h-150l-28-150h-100l28 150h-149l18 100h150l38 200h-150l19 100h150l28 150h100l-28-150h150l28 150h100l-28-150h150l-19-100h-150z m-100 0h-150l-38-200h150z" horiz-adv-x="1000" />
<glyph glyph-name="one" unicode="&#xe860;" d="m900 493v-443q0-21-14-35t-36-15h-700q-21 0-35 15t-15 35v442q0 18 11 31t29 18l142 30q19 5 29 18l74 92q13 19 39 19h152q26 0 39-19l74-92q10-13 29-18l142-29q17-3 28-18t12-31z m-400-443q104 0 177 73t73 177-73 177-177 73-177-73-73-177 73-177 177-73z m275 400q11 0 18 7t7 18-7 18-18 7-18-7-7-18 7-18 18-7z m-275 0q63 0 106-44t44-106-44-106-106-44-106 44-44 106 44 106 106 44z" horiz-adv-x="1000" />
<glyph glyph-name="zero" unicode="&#xe861;" d="m801 350q0-11-2-33-2-16 11-24l76-48q-13-49-39-93l-87 19q-14 5-25-8-18-23-47-47-12-10-9-25l19-88q-42-25-92-38l-48 76q-8 13-24 11-22-2-33-2-14 0-33 2-16 2-24-11l-49-77q-48 12-92 38l19 89q3 16-9 25-30 25-46 47-11 13-25 8l-89-19q-26 44-39 92l77 49q14 9 12 24-2 11-2 33t2 33q2 15-12 24l-77 49q12 46 38 92l89-20q15-3 25 9 18 23 47 47 12 9 9 25l-19 89q44 26 92 38l49-77q8-13 23-11 22 2 34 2 11 0 33-2 16-2 24 12l48 76q46-12 92-39l-19-88q-3-15 9-25 29-24 47-47 10-12 25-9l88 20q26-45 38-93l-76-48q-13-8-11-24 2-22 2-33z m-301-150q63 0 106 44t44 106-44 106-106 44-106-44-44-106 44-106 106-44z" horiz-adv-x="1000" />
<glyph glyph-name="slash" unicode="&#xe862;" d="m250 750h500q63 0 106-44t44-106v-500q0-62-44-106t-106-44h-500q-62 0-106 44t-44 106v500q0 63 44 106t106 44z m500-100h-500q-21 0-35-15t-15-35v-500q0-21 15-35t35-15h500q21 0 35 15t15 35v500q0 21-15 35t-35 15z" horiz-adv-x="1000" />
<glyph glyph-name="period" unicode="&#xe863;" d="m500 400h100l-200-300 50 200h-100l200 300z" horiz-adv-x="1000" />
<glyph glyph-name="hyphen" unicode="&#xe864;" d="m541 203q19-7 32-23t18-36q4-21 6-68t3-76h-550q0 27 3 75t7 69q5 20 18 36t32 23q59 22 126 37 14 3 22 14t9 24q0 17-16 28-39 23-53 62-1 4-4 12t-4 12l-10 5q-12 6-17 18-12 28-13 50-1 7 3 13t10 8l8 2q-1 5-1 13-1 7-1 19 0 29 13 55t36 43q23 18 51 23t56-3q-14 23-39 33 22 6 39 6 65 0 111-46t46-111q0-12-1-19 0-2 0-6t-1-6l8-3q15-5 14-21-3-26-13-50-6-12-17-18l-11-5q-1-4-4-12t-4-12q-15-40-53-62-16-10-16-28 0-13 9-24t22-14q66-15 126-37z m209 197h-200v-100h200v-150l200 201-200 199v-150z" horiz-adv-x="1000" />
<glyph glyph-name="comma" unicode="&#xe865;" d="m800 300h-250v-250h-100v250h-250v100h250v250h100v-250h250v-100z" horiz-adv-x="1000" />
<glyph glyph-name="percent" unicode="&#xe866;" d="m803 479q67-26 107-85t40-132q0-77-41-135t-109-84v112q50 39 50 107 0 47-29 83t-74 46l-37 9-2 38q-2 42-32 70t-73 29q-13 0-28-4l-38-10-19 35q-22 43-63 67t-88 25q-72 0-122-50t-51-122q0-27 13-63l12-32-25-23q-44-41-44-98 0-69 50-107v-112q-68 24-109 83t-41 136q0 82 54 147-10 33-10 69 0 55 22 105t58 87 88 58 105 22q65 0 124-30t96-83q78 7 139-39t77-119z m-253-342l150 76v-63l-199-200-200 200v63l150-76v213h99v-213z" horiz-adv-x="1000" />
<glyph glyph-name="dollar" unicode="&#xe867;" d="m800 350l-250-250h-100l125 200h-325v100h325l-125 200h100z" horiz-adv-x="1000" />
<glyph glyph-name="numbersign" unicode="&#xe868;" d="m500 700q41 0 65-37l324-550q11-17 11-37t-10-38q-22-38-65-38h-650q-43 0-65 38-10 18-10 38t11 37l323 550q25 37 66 37z m0-50q-15 0-22-13l-324-549q-7-12-1-25 7-13 22-13h650q15 0 22 13 7 13-1 25l-325 549q-6 13-21 13z m25-200v-123q0-26-2-40 0-4-5-37h-36q-4 33-5 37-2 28-2 40v123h50z m-56-301q-2 10-2 12 0 4 2 13 4 9 7 11 5 5 11 7 7 3 13 3 5 0 12-3 6-2 11-7 3-2 7-11 2-9 2-13 0-2-2-12-4-8-7-11-8-5-11-6-7-3-12-3-6 0-13 3-3 1-11 6-3 3-7 11z" horiz-adv-x="1000" />
<glyph glyph-name=".notdef" unicode="&#xe869;" d="m33-150v667h266v-667h-266z m33 33h200v600h-200v-600z" horiz-adv-x="365.2" />
<glyph glyph-name="uniFB01" unicode="&#xe86a;" d="m873 607q55-257 0-514-9-44-41-75t-75-41q-127-27-257-27t-257 27q-43 9-75 41t-41 75q-55 257 0 514 9 43 41 75t75 41q127 27 257 27t257-27q44-9 75-41t41-75z m-49-504q53 247 0 494-6 29-27 50t-50 27q-122 26-247 26t-247-26q-29-6-50-27t-27-50q-53-247 0-494 6-29 27-50t50-27q123-26 247-26t247 26q29 6 50 27t27 50z m-486 247q15 0 26-11t11-26q0-16-11-27t-26-11q-16 0-27 11t-11 27q0 15 11 26t27 11z m325 0q15 0 26-11t11-26q0-16-11-27t-26-11q-15 0-27 11t-11 27q0 15 11 26t27 11z m-91-131q8 7 18 6t17-9q6-8 5-19t-9-16q-3-3-13-9t-36-14-54-8-54 8-36 14-13 9q-8 6-9 17t5 18q6 9 17 9t18-6l3-1q2-1 5-3t7-4 10-4 13-3 16-3 18-1q13 0 25 2t20 5 14 5 9 5z" horiz-adv-x="1000" />
<glyph glyph-name="Q-1" unicode="&#xe86b;" d="m0 474q0 169 136 290t326 120q125 0 231-55t169-150 62-205q0-111-62-205-62-96-169-150t-231-55q-20 0-58 4l-5-11q-29-67-90-107t-136-40l-31 2 13 16q33 44 45 83t-4 87q-15 47-71 98t-91 124q-34 73-34 154z" horiz-adv-x="923.8" />
<glyph glyph-name="P-1" unicode="&#xe86c;" d="m11 157q0 96 44 167 21 34 51 58t82 39 118 12v147l235-206-235-205v146q-82 4-142-12t-89-43q-28-27-43-54t-18-48l-2-19q-1 6-1 18z m882 103h2q99-23 158-43 23-8 39-27t19-42l18-126h-707q11 75 18 126 3 22 19 42t38 29q57 22 155 42 22 5 37 23t14 39l-2 17q-24 12-38 21-23 14-34 39t-29 75q-27 0-34 26-14 51-14 57t6 12 15 6h4q-4 23-4 51 0 91 68 151 30 17 60 16t53-10l23-9q-4 14-17 27-13 13-33 21 25 5 47 5 83 0 143-59t59-142q0-27-4-51h4q8 0 14-6 6-6 6-14t-13-54q-7-26-34-27h-1q-13-43-29-76-9-23-31-37t-40-22q-3-12-3-26 0-14 13-31t35-22v-1z" horiz-adv-x="1146" />
<glyph glyph-name="O-1" unicode="&#xe86d;" d="m922 156q0-80-56-136t-136-56h-538q-81 0-136 56t-56 136v538q0 81 56 137t136 55h538q26 0 61-11-93-70-171-143h-428q-16 0-27-11t-11-27v-538q0-16 11-27t27-11h538q16 0 27 11t11 27v281q78 111 154 200v-481z m153 750q-178-159-329-367t-206-344q-17 19-48 53t-127 121q-96 89-192 163l79 90q101-55 192-120l35-24q94 109 241 241t330 240z" horiz-adv-x="1074.7" />
<glyph glyph-name="N-1" unicode="&#xe86e;" d="m123 518q0-102 72-174t173-73 174 73q72 72 72 174 0 101-72 173t-173 72-174-72q-72-72-72-173z m799-461q0-38-27-65t-65-27-65 27l-210 209q-88-53-186-53-153 0-261 109-108 108-108 261 0 151 108 260t260 108 261-108q108-108 108-261 0-98-51-186l209-209q27-27 27-65z" horiz-adv-x="922.9" />
<glyph glyph-name="M-1" unicode="&#xe86f;" d="m538 541v-231q0-113-105-146-25-8-49-8h-230q-42 0-74 16t-48 40q-32 51-32 98v230q0 113 106 147 24 7 48 7h230q43 0 73-16-31-23-55-44-12 2-18 2h-230q-27 0-50-12-47-22-46-84v-230q0-26 11-49 23-48 85-47h230q25 0 49 11 47 23 47 85v185q44 54 56 67 2-14 2-21z m62 188l15-32q-106-95-197-219t-123-206l-27 28q-26 28-80 78t-112 95l47 54q59-30 136-86 142 168 341 288z" horiz-adv-x="615.7" />
<glyph glyph-name="L-1" unicode="&#xe870;" d="m480 540q1 27-11 50-23 47-85 46h-230q-27 0-50-12-47-22-46-84v-230q0-26 11-49 23-48 85-47h230q25 0 49 11 47 23 47 85v230z m-96 154q56 0 93-27 37-27 48-60t13-66v-231q0-113-105-146-25-8-49-8h-230q-42 0-74 16t-48 40q-32 51-32 98v230q0 113 106 147 24 7 48 7h230z" horiz-adv-x="537.6" />
<glyph glyph-name="K-1" unicode="&#xe871;" d="m333 437l99 80h-124l-42 126-41-126h-125l99-80-36-126 103 75 103-75z m199 449v-864l-266 97-266-97v864h532z" horiz-adv-x="531.7" />
<glyph glyph-name="J-1" unicode="&#xe872;" d="m769 623v-385q0-91-57-141t-135-51h-384q-92 0-142 57-49 57-50 134v385q0 91 57 141t134 51h385q41 0 79-15-58-43-101-81h-362q-37 0-66-21t-30-75v-384q0-37 21-66t75-30h383q37 0 67 21t30 75v269q46 61 95 118 1-1 1-2z m93 247l22-45q-152-136-281-313t-175-293l-38 41q-37 40-115 112t-159 134q0 1 67 77 85-44 193-122 48 57 108 116t165 143 213 150z" horiz-adv-x="883.8" />
<glyph glyph-name="I-1" unicode="&#xe873;" d="m576 713h-384q-37 0-66-20t-30-76v-384q0-37 21-66t75-30h384q96 3 96 96v384q0 38-21 67t-75 29z m-384-672q-92 0-142 57-49 56-50 134v385q0 91 57 141t135 51h384q92 0 141-57t51-134v-385q1-91-56-141t-135-51h-385z" horiz-adv-x="767.6" />
<glyph glyph-name="H-1" unicode="&#xe874;" d="m231 271h460v-115h-460v115z m0 173h460v-115h-460v115z m-116 115q0-85-16-237-16-153-41-281h806q-25 128-39 258-15 129-17 195l-1 65h-692z m720 288q36 0 62-25t25-61v-749q0-36-25-61t-62-25h-748q-36 0-62 25t-25 61v749q0 36 25 61t62 25h86v116h58v-231h57v115h346v116h57v-231h58v115h86z" horiz-adv-x="921.9" />
<glyph glyph-name="G-1" unicode="&#xe875;" d="m768 156v538q0 16-11 27t-27 11h-538q-16 0-27-11t-11-27v-538q0-16 11-27t27-11h538q16 1 27 11t11 27z m154 538v-538q0-80-56-136t-136-56h-538q-81 0-136 56t-56 136v538q0 81 56 137t136 55h538q81 0 136-55t56-137z" horiz-adv-x="921.9" />
<glyph glyph-name="F-1" unicode="&#xe876;" d="m1042 826q-205-184-380-424t-238-398q-20 22-56 61-36 38-147 141t-221 187l91 105q96-50 223-139l40-28q64 75 146 157t224 196 289 202z" horiz-adv-x="1042" />
<glyph glyph-name="E-1" unicode="&#xe877;" d="m882 79q-95 0-182 56 50 61 76 130 48-32 106-32 79 1 136 57t56 135-56 135-135 56q-78 0-127-51t-65-141q-30-162-117-253t-230-91-242 100q-101 101-101 245t101 244 244 100q96 0 182-55-49-60-76-131-47 34-106 33-80 0-136-56-56-57-56-136t56-135 135-56 128 52q49 51 64 139 30 163 117 254t229 91 243-100q101-100 101-244t-100-245-245-101z" horiz-adv-x="1227.5" />
<glyph glyph-name="D-1" unicode="&#xe878;" d="m115 559q0-85-16-237-16-153-41-281h806q-25 128-39 258-15 129-17 195l-1 65h-692z m720 288q36 0 62-25t25-61v-749q0-36-25-61t-62-25h-748q-36 0-62 25t-25 61v749q0 36 25 61t62 25h86v116h58v-231h57v115h346v116h57v-231h58v115h86z" horiz-adv-x="921.9" />
<glyph glyph-name="C-1" unicode="&#xe879;" d="m665 578h411l-333-235 127-385-332 241-332-243 127 387-333 235h411l127 391z" horiz-adv-x="1074.7" />
<glyph glyph-name="B-1" unicode="&#xe87a;" d="m0 195h922v-154h-922v154z m0 307h922v-154h-922v154z m0 307h922v-154h-922v154z" horiz-adv-x="921.9" />
<glyph glyph-name="A-1" unicode="&#xe87b;" d="m214 562h608l-13-129h-582z m45 65l-13 129h544l-13-129h-518z m176-388h166q17 0 31 11t17 28l5 25-7 65h266l-71 453h-647l-65-453h259l-7-65 5-25q4-17 17-28t31-11z m601 64l-65-323h-906l-65 323 130 583h776z" horiz-adv-x="1035.6" />
<glyph glyph-name=".notdef-1" unicode="&#xe87c;" d="m50 655v-510l170 255z m30-555h340l-170 255z m200 300l170-255v510z m-30 45l170 255h-340z m-250-395v700h500v-700h-500z" horiz-adv-x="500" />
<glyph glyph-name="uni25FC-1" unicode="&#xe87d;" d="m0 600h750v-750h-750v750z" horiz-adv-x="750" />
<glyph glyph-name="lozenge-1" unicode="&#xe87e;" d="m524 301q17 0 24 17l46 138 138 46q17 5 17 24 0 18-17 23l-138 47-46 138q-5 15-24 15t-24-15l-46-138-138-47q-17-5-17-23 0-19 17-24l138-46 46-138q7-17 24-17z m-121 225l79 26q12 5 16 16l26 79 26-79q4-11 16-16l79-26-79-27q-11-3-16-15l-26-79-26 79q-5 12-16 15z m-129-425q16 0 22 14l47 92 92 46q14 8 14 23 0 16-14 22l-92 46-47 93q-6 13-22 13t-22-13l-47-93-92-46q-14-6-14-22 0-15 14-23l92-46 47-92q6-14 22-14z m400-150q17 0 24 17l46 138 138 46q17 5 17 24 0 17-17 24l-138 46-46 138q-5 15-24 15t-24-15l-46-138-138-46q-17-7-17-24 0-19 17-24l138-46 46-138q7-17 24-17z m-494 325l55 27q8 5 11 12l28 55 28-55q3-7 11-12l55-27-55-28q-8-3-11-11l-28-55-28 55q-3 8-11 11z m373-100l79 26q12 5 16 16l26 79 26-79q4-11 16-16l79-26-79-26q-11-5-16-16l-26-79-26 79q-5 11-16 16z" horiz-adv-x="1000" />
<glyph glyph-name="uni231A" unicode="&#xe87f;" d="m698 588l5-3q47-30 47-85v-300q0-55-47-85l-5-3-22-12q-26-15-26-44v-56q0-21-14-36t-36-14h-200q-21 0-35 14t-15 36v56q0 29-26 44l-22 12q-2 1-4 3-48 30-48 85v300q0 55 47 85l5 3 22 12q26 15 26 44v56q0 21 15 36t35 14h200q21 0 36-14t14-36v-56q0-29 26-44z m-298 112v-56q0-21-10-44h220q-10 23-10 44v56h-200z m-50-550h300q21 0 36 15t14 35v300q0 21-14 36t-36 14h-300q-21 0-35-14t-15-36v-300q0-21 15-35t35-15z m250-150v56q0 21 10 44h-220q10-23 10-44v-56h200z" horiz-adv-x="1000" />
<glyph glyph-name="greaterequal" unicode="&#xe880;" d="m375 749h400q52 0 89-36t36-89v-400q0-45-28-79t-72-43v-28q0-52-36-89t-89-36h-450q-52 0-88 36t-37 89v450q0 52 37 89t88 36h28q8 43 43 72t79 28z m475-525v400q0 31-22 53t-53 22h-400q-31 0-53-22t-22-53v-400q0-31 22-53t53-22h400q31 0 53 22t22 53z m-625-225h450q31 0 53 22t22 53v25h-375q-52 0-88 37t-37 88v375h-25q-31 0-53-22t-22-53v-450q0-31 22-53t53-22z m175 600h50q21 0 36-14t14-36v-50q0-21-14-35t-36-15h-50q-21 0-35 15t-15 35v50q0 21 15 36t35 14z m50-100v50h-50v-50h50z m125 50h200q11 0 18-7t7-18-7-17-18-8h-200q-11 0-18 8t-7 17 7 18 18 7z m-175-150h50q21 0 36-14t14-36v-50q0-21-14-35t-36-15h-50q-21 0-35 15t-15 35v50q0 21 15 36t35 14z m50-100v50h-50v-50h50z m125 50h200q11 0 18-7t7-18-7-17-18-8h-200q-11 0-18 8t-7 17 7 18 18 7z" horiz-adv-x="1000" />
<glyph glyph-name="lessequal" unicode="&#xe881;" d="m525 600q11 0 18 7t7 18v50q0 31-22 53t-53 22h-300q-31 0-53-22t-22-53v-50q0-11 7-18t18-7 18 7 7 18v50q0 11 7 18t18 7h300q11 0 18-7t7-18v-50q0-11 7-18t18-7z m-300-650h550q52 0 89 36t36 89v450q0 11-7 18t-18 7h-750q-11 0-18-7t-7-18v-450q0-52 37-89t88-36z m-75 550h700v-425q0-31-22-53t-53-22h-550q-31 0-53 22t-22 53v425z" horiz-adv-x="1000" />
<glyph glyph-name="notequal-1" unicode="&#xe882;" d="m475 0q11 0 18 7t7 18-7 18-18 7q-134 0-229 96t-96 229 96 230 229 95 230-95 95-230q0-11 7-18t18-7 18 7 7 18q0 155-110 265t-265 110-265-110-110-265 110-265 265-110z m-150 300h200q11 0 18 7t7 18v250q0 11-7 18t-18 7-18-7-7-18v-225h-175q-11 0-18-7t-7-18 7-18 18-7z m300-350h200q31 0 53 22t22 53v200q0 31-22 53t-53 22h-200q-31 0-53-22t-22-53v-200q0-31 22-53t53-22z m0 300h200q11 0 18-7t7-18v-200q0-11-7-18t-18-7h-200q-11 0-18 7t-7 18v200q0 11 7 18t18 7z m100-200q11 0 18 7t7 18v100q0 15-12 21-11 8-24 1l-50-25q-10-5-13-14t2-19q5-10 15-13t18 2l14 7v-60q0-11 7-18t18-7z" horiz-adv-x="1000" />
<glyph glyph-name="integral-1" unicode="&#xe883;" d="m150 200q62 0 106 44t44 106-44 106-106 44-106-44-44-106 44-106 106-44z m350 0q62 0 106 44t44 106-44 106-106 44-106-44-44-106 44-106 106-44z m350 0q62 0 106 44t44 106-44 106-106 44-106-44-44-106 44-106 106-44z m-700 250q41 0 71-29t29-71-29-70-71-30-70 30-30 70 30 71 70 29z m350 0q41 0 71-29t29-71-29-70-71-30-70 30-30 70 30 71 70 29z m350 0q41 0 71-29t29-71-29-70-71-30-70 30-30 70 30 71 70 29z" horiz-adv-x="1000" />
<glyph glyph-name="infinity-1" unicode="&#xe884;" d="m125 500h750q11 0 18 7t7 18v150q0 31-22 53t-53 22h-650q-31 0-53-22t-22-53v-150q0-11 7-18t18-7z m25 50v125q0 11 7 18t18 7h650q11 0 18-7t7-18v-125h-700z m25-600h650q31 0 53 22t22 53v400q0 11-7 18t-18 7-18-7-7-18v-400q0-11-7-18t-18-7h-650q-11 0-18 7t-7 18v400q0 11-7 18t-18 7-18-7-7-18v-400q0-31 22-53t53-22z m250 300q31 0 53 22t22 53v50q0 31-22 53t-53 22-53-22-22-53v-50q0-31 22-53t53-22z m-150 50q11 0 18 7t7 18v50q0 11-7 18t-18 7-18-7-7-18v-50q0-11 7-18t18-7z m150 100q11 0 18-7t7-18v-50q0-11-7-18t-18-7-18 7-7 18v50q0 11 7 18t18 7z m150-100q11 0 18 7t7 18v50q0 11-7 18t-18 7-18-7-7-18v-50q0-11 7-18t18-7z m150 0q11 0 18 7t7 18v50q0 11-7 18t-18 7-18-7-7-18v-50q0-11 7-18t18-7z m-450-200q11 0 18 7t7 18v50q0 11-7 18t-18 7-18-7-7-18v-50q0-11 7-18t18-7z m150 0q11 0 18 7t7 18v50q0 11-7 18t-18 7-18-7-7-18v-50q0-11 7-18t18-7z m150 0q11 0 18 7t7 18v50q0 11-7 18t-18 7-18-7-7-18v-50q0-11 7-18t18-7z m150 0q11 0 18 7t7 18v50q0 11-7 18t-18 7-18-7-7-18v-50q0-11 7-18t18-7z" horiz-adv-x="1000" />
<glyph glyph-name="radical-1" unicode="&#xe885;" d="m500 750q166 0 283-117t117-283-117-283-283-117-283 117-117 283 117 283 283 117z m0-750q145 0 248 103t102 247q0 66-23 126l-38-17q-23-9-45-9-41 0-70 25l-22 18q-11 10-25 3l-73-37q-36-18-70 3-35 21-33 61 0 29 19 52t48 27l50 7q55 9 88 54-72 37-156 37-122 0-216-75l45-92q20-40 13-83t-39-73l-20-20-12-12q-23-20-21-52 2-31 26-51l32-26h1l15-13q42-33 61-83t9-103q51-17 106-17z m269 505l36 16q-38 69-106 117-47-66-123-78l-50-8q-11-2-18-10t-7-20q0-12 10-18 9-6 20-1l73 37q43 21 79-8l23-18q29-24 63-9z m-619-155q0-102 54-186t142-128q8 79-53 128l-15 13h-1l-33 26q-41 35-44 87-3 55 36 91l12 12 20 20q20 19 25 46t-8 51l-40 80q-95-101-95-240z m424 50q65 0 95-32t29-67q0-22-9-40t-17-27-25-22q-17-14-25-24-27-38-23-104 2-6 2-9 0-11-7-18t-19-7q-9 0-14 4-110 83-111 196 0 77 39 116 34 34 85 34z m41-150q13 11 19 17t10 15 4 19q0 3 0 7t-5 12-12 14-22 11-35 5q-31 0-49-19-25-25-25-81 0-63 51-120 6 52 30 87 10 13 34 33z" horiz-adv-x="1000" />
<glyph glyph-name="product-1" unicode="&#xe886;" d="m475 216q15 0 22 13 11 24-11 34-71 36-84 113-13 75 42 130l100 100q44 44 107 44t106-44q43-44 43-106t-43-107q-21-20-28-29l-22-22q-16-18 0-35 7-7 18-7t18 7q22 22 27 29l22 22q58 58 58 141t-58 142-141 59-142-59l-100-100q-34-34-49-80t-7-93q16-102 111-150 6-2 11-2z m-184 174q-19 18-38-1l-45-47q-58-58-58-141t58-142q58-58 142-58 83 0 141 58l100 100q34 34 49 80t7 93q-16 101-110 150-10 4-19 1t-15-12q-4-10-1-19t12-15q71-36 84-113 13-76-42-129l-100-100q-43-43-106-43t-107 43-43 106 43 106q10 9 49 50 6 6 6 17 0 9-7 16z" horiz-adv-x="1000" />
<glyph glyph-name="Delta" unicode="&#xe887;" d="m543 743l299-300q8-7 8-18t-8-18l-299-300q-7-7-18-7t-18 7q-16 18 0 36l258 257h-190q-155 0-265-110t-110-265v-50q0-11-7-18t-18-7-18 7-7 18v50q0 175 125 300t300 125h190l-258 257q-16 18 0 36 18 16 36 0z" horiz-adv-x="1000" />
<glyph glyph-name="trademark-1" unicode="&#xe888;" d="m237-50q8 0 15 5l151 110q9 6 11 17t-5 18-16 10-19-5l-89-65 76 236q7 17-9 28l-200 146h248q18 0 23 17l77 235 77-235q5-17 23-17h248l-14-11q-8-6-10-16t5-18q6-9 16-10t18 4l77 55q14 12 9 28-7 18-24 18h-306l-95 291q-5 16-24 16t-24-16l-94-291h-307q-17 0-24-18-5-16 9-28l248-180-94-291q-6-18 9-28 7-5 14-5z m422 0h32q14 0 25 9t12 22l7 33q1 1 5 3t6 2l28-19q10-6 22-6 16 0 27 11l22 22q10 10 12 24t-7 25l-19 28q1 1 2 3t1 4l2 4 33 7q13 2 22 13t9 24v32q0 14-9 25t-22 12l-33 7q-1 1-2 5t-3 6l19 28q17 27-5 49l-22 22q-10 10-24 12t-25-7l-28-19q-1 1-3 2t-4 1l-4 2-7 33q-2 13-12 22t-25 9h-32q-14 0-24-9t-13-22l-7-33q-1-1-5-2t-6-3l-28 19q-11 8-25 7t-24-12l-22-22q-10-10-11-24t6-25l19-28-5-11-33-7q-13-2-22-12t-9-25v-32q0-14 9-24t22-13l33-7q1-1 3-5t2-6l-19-28q-8-11-6-25t11-24l22-22q24-22 49-5l28 19q1-1 3-1t4-2l4-2 7-33q2-13 13-22t24-9z m10 50l-6 31q-5 21-26 29-7 1-17 7-20 10-39-3l-25-17-9 9 17 26q13 18 3 38-6 10-7 17-8 21-29 26l-31 6v12l31 6q21 5 29 26 2 8 4 12 12 27-4 50l-13 19 9 9 26-17q18-13 38-3 10 6 17 7 21 8 26 29l6 31h12l6-31q5-21 26-29 7-1 17-7 20-10 39 3l25 17 9-9-17-26q-13-18-3-38 6-10 7-17 8-21 29-26l31-6v-12l-31-6q-21-5-29-26-1-7-7-17-10-20 3-39l17-25-9-9-26 17q-18 13-38 3-10-6-17-7-21-8-26-29l-6-31h-12z m7 100q31 0 53 22t22 53-22 53-53 22-53-22-22-53 22-53 53-22z m0 100q10 0 18-7t7-18-7-17-18-8-17 7-8 18 8 18 17 7z" horiz-adv-x="1000" />
<glyph glyph-name="guilsinglleft-1" unicode="&#xe889;" d="m425 0q8 0 16 6t8 13l150 650q2 10-3 19t-15 11-19-3-11-15l-150-650q-2-10 3-19t15-11q2-1 6-1z m-100 150q13 0 20 10 6 8 5 19t-10 16l-190 142v25l190 143q8 6 10 17t-5 18-16 10-19-5l-200-150q-10-8-10-20v-50q0-12 10-20l200-150q7-5 15-5z m350 0q7 0 15 5l200 150q10 8 10 20v50q0 12-10 20l-200 150q-8 6-18 5t-17-10-4-18 9-17l190-143v-25l-190-142q-8-6-9-16t4-19q7-10 20-10z" horiz-adv-x="1000" />
<glyph glyph-name="ellipsis-1" unicode="&#xe88a;" d="m163 520q12-21-11-34-6-2-11-2-16 0-22 14-19 37-19 77 0 72 52 124t123 51q58 0 104-35 8-6 10-16t-5-19q-6-8-16-9t-19 4q-34 25-74 25-52 0-88-36t-37-89q0-26 13-55z m562 230q73 0 124-51t51-124q0-39-18-77-8-14-23-14-3 0-11 2-9 5-12 15t1 19q13 26 13 55 0 52-36 89t-89 36q-40 0-74-25-8-6-18-4t-17 9-4 19 9 16q47 35 104 35z m125-450q0-151-110-255l53-52q16-18 0-36-7-7-18-7t-18 7l-56 57q-91-64-201-64t-201 64l-56-57q-7-7-18-7t-18 7q-16 18 0 36l53 52q-110 104-110 255 0 145 103 248t247 102 248-102 102-248z m-650 0q0-124 88-212t212-88 212 88 88 212-88 212-212 88-212-88-88-212z m325 200q11 0 18-7t7-18v-200q0-11-7-18t-18-7h-152q-10 0-17 8t-8 17 8 18 17 7h127v175q0 11 7 18t18 7z" horiz-adv-x="1000" />
<glyph glyph-name="bullet-1" unicode="&#xe88b;" d="m601 0h48q16 0 29 10t15 26l11 57 29 12 48-32q10-7 25-7 19 0 32 13l33 33q26 26 6 57l-32 48 12 29 57 11q16 3 26 16t10 28v48q0 16-10 29t-26 15l-57 11-12 29 32 48q20 31-6 57l-33 33q-25 25-57 6l-48-32-29 12-11 57q-3 16-15 26t-29 10h-48q-16 0-28-10t-16-26l-11-57-29-12-48 32q-13 8-29 7t-28-13l-33-33q-26-26-6-57l28-41q4-8 1-14l-9-22-57-11q-16-3-26-15t-10-29v-48q0-16 10-28t26-16l57-11 12-29-32-48q-20-31 6-57l33-33q11-11 28-12t29 6l48 32 29-12 11-57q3-16 16-26t28-10z m-576 550h225q10 0 18 7t7 18-7 18-18 7h-225q-11 0-18-7t-7-18 7-18 18-7z m581-500l-12 56q-5 26-30 34-9 3-27 11-24 12-45-3l-47-31-28 28 31 47q15 21 3 45-8 18-11 27-8 25-34 30l-56 11v40l56 11q26 5 34 30l7 19q16 33-5 63l-25 37 28 28 47-31q21-15 45-3 18 8 27 11 25 8 30 34l12 56h38l12-56q5-26 30-34 9-3 27-11 24-12 45 3l47 31 28-28-31-47q-15-21-3-45 8-18 11-27 8-25 34-30l56-11v-40l-56-11q-26-5-34-30-3-9-11-27-12-24 3-45l31-47-28-28-47 31q-21 15-45 3-18-8-27-11-25-8-30-34l-12-56h-38z m20 151q52 0 89 37t36 88-36 89-89 36-88-36-37-89 37-88 88-37z m0 200q31 0 53-22t22-53-22-53-53-22-53 22-22 53 22 53 53 22z m-601-101h150q11 0 18 7t7 18-7 18-18 7h-150q-11 0-18-7t-7-18 7-18 18-7z m0-250h225q10 0 18 7t7 18-7 18-18 7h-225q-11 0-18-7t-7-18 7-18 18-7z" horiz-adv-x="1000" />
<glyph glyph-name="daggerdbl" unicode="&#xe88c;" d="m725 501q11 0 18 7l100 100q16 18 0 36-18 16-36 0l-82-83-82 83q-18 16-36 0-16-18 0-36l100-100q7-7 18-7z m-550 50h350q11 0 18 8t7 17-7 18-18 7h-350q-11 0-18-7t-7-18 7-17 18-8z m75-301h50q21 0 36 15t14 35v50q0 21-14 36t-36 14h-50q-21 0-35-14t-15-36v-50q0-21 15-35t35-15z m0 100h50v-50h-50v50z m175-50h350q11 0 18 7t7 18-7 18-18 7h-350q-11 0-18-7t-7-18 7-18 18-7z m-175-250h50q21 0 36 15t14 35v50q0 21-14 36t-36 14h-50q-21 0-35-14t-15-36v-50q0-21 15-35t35-15z m0 100h50v-50h-50v50z m175-50h350q11 0 18 7t7 18-7 18-18 7h-350q-11 0-18-7t-7-18 7-18 18-7z" horiz-adv-x="1000" />
<glyph glyph-name="dagger-1" unicode="&#xe88d;" d="m724 150h2q10 0 17 7t8 16v19 8q0 166-117 283t-283 117h-25q-10 0-17-7t-8-18 8-18 17-7h25q145 0 248-102t102-248v-9-14q-1-10 6-18t17-9z m-148 0q10 0 18 7t7 18v25q0 104-73 177t-177 73h-25q-10 0-17-7t-8-18 8-18 17-7h25q83 0 142-59t58-141v-25q0-11 8-18t17-7z m-225-50q41 0 71 30t29 70-29 71-71 29-70-29-30-71 30-70 70-30z m0 150q20 0 35-14t15-36-15-35-35-15q-21 0-35 15t-15 35 15 36 35 14z" horiz-adv-x="1000" />
<glyph glyph-name="emdash-1" unicode="&#xe88e;" d="m500 551l300-351h-600z" horiz-adv-x="1000" />
<glyph glyph-name="endash" unicode="&#xe88f;" d="m356 250q-34 0-62 50t-42 117-14 133q0 82 35 141t83 59 83-59 34-141q0-112-34-206t-83-94z m0 450q-37 0-62-44t-26-106q0-89 26-169t62-81q23 0 44 39t33 97 11 114q0 62-26 106t-62 44z m294-325q0-6-2-12-1-4-2-6l-59-100q-4-7-10-7t-11 7q-10 18 0 36l34 57h-82q-7 0-11 7t-4 18 4 18 11 7h82l-34 57q-10 18 0 36 10 16 21 0l59-100q1-2 2-6 2-6 2-12z m-95-269l6-51q2-14-3-23-65-82-202-82t-202 82q-5 9-4 23l7 54q5 34 19 59t34 34l66 30q6 3 10 11 11 16 22 0 9-18 0-36-12-17-25-23l-65-30q-12-5-20-20t-12-36l-5-38q56-60 175-60 122 0 175 60l-5 35q-3 20-11 35t-20 20l-67 34q-13 6-23 23-4 7-4 18t4 17 10 8 10-7q4-8 11-11l67-34q20-9 34-34t18-58z" horiz-adv-x="650" />
<glyph glyph-name="figuredash" unicode="&#xe890;" d="m500 250q-58 0-105 50t-71 117-24 133q0 82 59 141t141 59 141-59 59-141q0-112-59-206t-141-94z m0 450q-62 0-106-44t-44-106q0-89 45-169t105-81q39 0 75 39t55 97 20 114q0 62-44 106t-106 44z m500-325q0-6-3-12-2-4-4-6l-100-100q-7-7-18-7t-18 7q-16 18 0 36l58 57h-140q-11 0-18 7t-7 18 7 18 18 7h140l-58 57q-16 18 0 36 18 16 36 0l100-100q2-2 4-6 3-6 3-12z m-162-269l11-51q3-14-6-23-109-82-343-82t-343 82q-9 9-6 23l11 54q8 34 32 59t58 34l112 30q10 3 18 11 18 16 36 0 16-18 0-36-19-17-41-23l-112-30q-20-5-34-20t-20-36l-8-38q95-60 297-60 207 0 297 60l-8 35q-5 20-19 35t-33 20l-115 34q-22 6-39 23-7 7-7 18t7 17 18 8 17-7q6-8 18-11l115-34q33-9 56-34t31-58z" horiz-adv-x="1000" />
<glyph glyph-name="uni2011" unicode="&#xe891;" d="m500 250q-58 0-105 50t-71 117-24 133q0 82 59 141t141 59 141-59 59-141q0-112-59-206t-141-94z m0 450q-62 0-106-44t-44-106q0-89 45-169t105-81q39 0 75 39t55 97 20 114q0 62-44 106t-106 44z m500-325q0-6-3-12-2-4-4-6l-100-100q-7-7-18-7t-18 7q-16 18 0 36l58 57h-140q-11 0-18 7t-7 18 7 18 18 7h140l-58 57q-16 18 0 36 18 16 36 0l100-100q2-2 4-6 3-6 3-12z m-162-269l11-51q3-14-6-23-109-82-343-82t-343 82q-9 9-6 23l11 54q8 34 32 59t58 34l112 30q10 3 18 11 18 16 36 0 16-18 0-36-19-17-41-23l-112-30q-20-5-34-20t-20-36l-8-38q95-60 297-60 207 0 297 60l-8 35q-5 20-19 35t-33 20l-115 34q-22 6-39 23-7 7-7 18t7 17 18 8 17-7q6-8 18-11l115-34q33-9 56-34t31-58z" horiz-adv-x="1000" />
<glyph glyph-name="uni2010" unicode="&#xe892;" d="m500 250q-58 0-105 50t-71 117-24 133q0 82 59 141t141 59 141-59 59-141q0-112-59-206t-141-94z m0 450q-62 0-106-44t-44-106q0-89 45-169t105-81q39 0 75 39t55 97 20 114q0 62-44 106t-106 44z m500-325q0-6-3-12-2-4-4-6l-100-100q-7-7-18-7t-18 7q-16 18 0 36l58 57h-140q-11 0-18 7t-7 18 7 18 18 7h140l-58 57q-16 18 0 36 18 16 36 0l100-100q2-2 4-6 3-6 3-12z m-162-269l11-51q3-14-6-23-109-82-343-82t-343 82q-9 9-6 23l11 54q8 34 32 59t58 34l112 30q10 3 18 11 18 16 36 0 16-18 0-36-19-17-41-23l-112-30q-20-5-34-20t-20-36l-8-38q95-60 297-60 207 0 297 60l-8 35q-5 20-19 35t-33 20l-115 34q-22 6-39 23-7 7-7 18t7 17 18 8 17-7q6-8 18-11l115-34q33-9 56-34t31-58z" horiz-adv-x="1000" />
<glyph glyph-name="florin-1" unicode="&#xe893;" d="m308 642q-8-6-18-4t-17 11q-5 8-3 19t10 16q101 66 221 66 166 0 283-117t117-283q0-120-66-221-8-11-21-11-6 0-14 4-9 6-11 17t4 18q58 89 58 193 0 66-23 126l-38-17q-22-9-45-9-41 0-70 25l-22 18q-11 10-25 3l-73-37q-35-18-70 3t-33 61q0 29 19 52t48 27l50 7q55 9 88 54-72 37-156 37-104 0-193-58z m-114 51l650-650q16-18 0-36-7-7-18-7t-18 7l-650 650q-16 18 0 36 18 16 36 0z m576-188l36 16q-38 69-106 117-47-66-123-78l-50-8q-11-2-18-10t-7-20q0-12 10-18 9-6 20-1l73 37q43 21 79-8l23-18q29-24 63-9z m-76-447q8 6 19 4t16-11q5-8 3-18t-10-17q-101-66-221-66-166 0-283 117t-117 283q0 120 66 220 14 20 35 8 9-6 11-16t-4-19q-58-87-58-193 0-102 54-186t142-128q8 79-53 128l-15 13h-1l-33 26q-41 35-44 87-3 55 36 91l12 12 20 20q11 10 19 30 9 23 32 14t14-32q-10-30-30-48l-20-20-12-12q-23-20-21-52 2-31 26-51l32-26h1l15-13q42-33 61-83t9-103q51-17 106-17 104 0 193 58z m-22 202h-5q-10 2-15 11t-4 19q1 4 1 11 0 3 0 7t-5 11-10 14-20 11-32 5q-10 1-17 9t-7 17q0 11 8 18t18 6q60-2 88-33t27-65q0-14-2-22-5-19-25-19z m-170 6v-7q-1-3-1-9 0-63 51-120 1 12 7 38 3 10 12 15t19 2q10-2 15-11t3-20q-5-16-6-35t-2-30l1-11q2-16-12-24-5-4-13-4-9 0-14 4-110 83-111 196 0 10 1 15 1 10 9 18t18 7q25-2 23-24z" horiz-adv-x="1000" />
<glyph glyph-name="Idieresis-1" unicode="&#xe894;" d="m320 650h360q50 0 85-35t35-85v-360q0-50-35-85t-85-35h-360q-50 0-85 35t-35 85v360q0 50 35 85t85 35z m360-50h-360q-29 0-49-20t-21-50v-360q0-29 21-49t49-21h360q29 0 50 21t20 49v360q0 29-20 50t-50 20z" horiz-adv-x="1000" />
<glyph glyph-name="OE-1" unicode="&#xe895;" d="m500-50q7 0 14 5 16 11 53 39t107 90 129 126 103 144 44 146q0 104-73 177t-177 73q-60 0-112-26t-88-75q-36 48-88 75t-112 26q-104 0-177-73t-73-177q0-66 45-146t103-144 128-126 107-90 53-39q7-5 14-5z" horiz-adv-x="1000" />
<glyph glyph-name="oslash-1" unicode="&#xe896;" d="m601 0h48q16 0 29 10t15 26l11 57 29 12 48-32q10-7 25-7 19 0 32 13l33 33q26 26 6 57l-32 48 12 29 57 11q16 3 26 16t10 28v48q0 16-10 29t-26 15l-57 11-12 29 32 48q20 31-6 57l-33 33q-25 25-57 6l-48-32-29 12-11 57q-3 16-15 26t-29 10h-48q-16 0-28-10t-16-26l-11-57-29-12-48 32q-13 8-29 7t-28-13l-33-33q-26-26-6-57l28-41q4-8 1-14l-9-22-57-11q-16-3-26-15t-10-29v-48q0-16 10-28t26-16l57-11 12-29-32-48q-20-31 6-57l33-33q11-11 28-12t29 6l48 32 29-12 11-57q3-16 16-26t28-10z m-576 550h225q10 0 18 7t7 18-7 18-18 7h-225q-11 0-18-7t-7-18 7-18 18-7z m581-500l-12 56q-5 26-30 34-9 3-27 11-24 12-45-3l-47-31-28 28 31 47q15 21 3 45-8 18-11 27-8 25-34 30l-56 11v40l56 11q26 5 34 30l7 19q16 33-5 63l-25 37 28 28 47-31q21-15 45-3 18 8 27 11 25 8 30 34l12 56h38l12-56q5-26 30-34 9-3 27-11 24-12 45 3l47 31 28-28-31-47q-15-21-3-45 8-18 11-27 8-25 34-30l56-11v-40l-56-11q-26-5-34-30-3-9-11-27-12-24 3-45l31-47-28-28-47 31q-21 15-45 3-18-8-27-11-25-8-30-34l-12-56h-38z m20 151q52 0 89 37t36 88-36 89-89 36-88-36-37-89 37-88 88-37z m0 200q31 0 53-22t22-53-22-53-53-22-53 22-22 53 22 53 53 22z m-601-101h150q11 0 18 7t7 18-7 18-18 7h-150q-11 0-18-7t-7-18 7-18 18-7z m0-250h225q10 0 18 7t7 18-7 18-18 7h-225q-11 0-18-7t-7-18 7-18 18-7z" horiz-adv-x="1000" />
<glyph glyph-name="iacute" unicode="&#xe897;" d="m450 247v155q-64 9-107 58t-43 115q0 72 52 124t123 51 124-51 51-124q0-66-43-115t-107-58v-155q23-5 37-17t13-30q0-22-21-36t-54-14-53 14-22 36q0 17 14 30t36 17z m25 453q-52 0-88-36t-37-89 37-88 88-37 89 37 36 88-36 89-89 36z m-50-100q-9 0-18 7-7 7-7 18t7 18 18 7 17-7q8-8 8-18 0-11-8-17-6-8-17-8z m413-54q12-6 12-21v-450q0-16-14-22l-200-100q-4-3-11-3-5 0-8 1l-290 97-191-95q-13-7-24 1-12 6-12 21v450q0 16 14 22l100 50q23 11 33-11 5-9 2-18t-13-15l-86-43v-395l164 82q10 5 19 2l290-97 177 88v395l-64-32q-23-11-33 11-5 9-2 19t13 14l100 50q13 7 24-1z" horiz-adv-x="1000" />
<glyph glyph-name="igrave" unicode="&#xe898;" d="m450 247v155q-64 9-107 58t-43 115q0 72 52 124t123 51 124-51 51-124q0-66-43-115t-107-58v-155q23-5 37-17t13-30q0-22-21-36t-54-14-53 14-22 36q0 17 14 30t36 17z m25 453q-52 0-88-36t-37-89 37-88 88-37 89 37 36 88-36 89-89 36z m-50-100q-9 0-18 7-7 7-7 18t7 18 18 7 17-7q8-8 8-18 0-11-8-17-6-8-17-8z m214-200q53-35 82-87t29-113q0-104-80-177t-195-73-194 73-81 177q0 60 29 113t82 87q8 6 19 4t16-10q12-21-7-35-89-59-89-159 0-83 66-141t159-59 159 59 66 141q0 100-89 159-20 15-7 35 6 8 17 10t18-4z m-249-127q-40-31-40-73 0-41 37-70t88-30 89 30 36 70q0 42-40 73-8 6-9 17t4 18 17 10 18-5q60-46 60-113 0-62-51-106t-124-44-123 44-52 106q0 67 60 113 8 6 19 5t16-10 5-18-10-17z" horiz-adv-x="1000" />
<glyph glyph-name="Iacute-1" unicode="&#xe899;" d="m475 149q2 0 3 1 14 2 18 12 221 369 497 645 16 17 0 35-7 8-18 8t-18-8q-272-272-487-628-108 104-231 182-20 12-35-8-12-21 8-35 132-83 245-196 8-8 18-8z m-250-200h550q52 0 89 36t36 89v475q0 11-7 18t-18 7-18-7-7-18v-475q0-31-22-53t-53-22h-550q-31 0-53 22t-22 53v550q0 31 22 53t53 22h500q10 0 18 8t7 17-7 18-18 7h-500q-52 0-88-36t-37-89v-550q0-52 37-89t88-36z" horiz-adv-x="1000" />
<glyph glyph-name="Igrave-1" unicode="&#xe89a;" d="m834 651l17-34q-183-151-290-361-20-37-27-56-4 5-12 13-98 109-205 186l46 46q73-31 138-78 139 176 333 284z m-84-481v239q16 20 50 56v-295q0-50-35-85t-85-35h-360q-50 0-85 35t-35 85v360q0 50 35 85t85 35h360q2 0 6 0t6-1q-39-27-66-49h-306q-29 0-49-20t-21-50v-360q0-29 21-49t49-21h360q29 0 50 21t20 49z" horiz-adv-x="1000" />
<glyph glyph-name="AE-1" unicode="&#xe89b;" d="m500-50q7 0 14 5 16 11 53 39t107 90 129 126 103 144 44 146q0 104-73 177t-177 73q-60 0-112-26t-88-75q-36 48-88 75t-112 26q-104 0-177-73t-73-177q0-66 45-146t103-144 128-126 107-90 53-39q7-5 14-5z m-200 750q56 0 104-29t74-81q6-13 22-13t22 13q26 51 74 81t104 29q82 0 141-59t59-141q0-53-35-118t-83-120-111-113-100-88-71-55q-33 25-70 55t-101 88-110 113-83 120-36 118q0 82 59 141t141 59z" horiz-adv-x="1000" />
<glyph glyph-name="Aring-1" unicode="&#xe89c;" d="m225-50h550q52 0 89 36t36 89v550q0 51-36 88t-89 37h-550q-52 0-88-37t-37-88v-550q0-52 37-89t88-36z m0 750h550q31 0 53-22t22-53v-550q0-31-22-53t-53-22h-550q-31 0-53 22t-22 53v550q0 31 22 53t53 22z" horiz-adv-x="1000" />
<glyph glyph-name="ae" unicode="&#xe89d;" d="m200 750h600q41 0 71-29t29-71v-600q0-41-29-71t-71-29h-600q-41 0-70 29t-30 71v600q0 41 30 71t70 29z m450-153v3h-136q-4 0-15-1t-33-9-41-20-33-39-15-62q0-68 44-97 29-18 66-18 2 0 5 1t3 0q-5-30 17-60h-1q-21 0-42-3t-52-13-49-35-19-61q0-37 17-61t44-34 44-13 32-3h3 4q49 0 88 19 69 35 69 117 0 24-11 47t-21 33-29 27q-29 25-29 38t22 33q40 36 40 95 0 36-8 57t-32 34q1 0 22 4 46 7 46 21z m-173-36q8 2 11 2 28 0 46-14t27-51-2-68-37-39q-8-2-11-2-22 0-42 20t-28 52q-9 33 2 64 11 30 34 36z m23-294q4 1 10 1 37 0 61-20t25-50q2-31-22-52t-64-25q-42-3-71 14t-30 49q-3 31 24 56 27 24 67 27z" horiz-adv-x="1000" />
<glyph glyph-name="oe" unicode="&#xe89e;" d="m200 750h600q41 0 71-29t29-71v-600q0-41-29-71t-71-29h-200v350h134v100h-134v50q0 22 15 35 13 15 35 15h100v100h-100q-62 0-106-44t-44-106v-50h-100v-100h100v-350h-300q-41 0-70 29t-30 71v600q0 41 30 71t70 29z" horiz-adv-x="1000" />
<glyph glyph-name="questiondown" unicode="&#xe89f;" d="m375 250q75 0 125 90t50 185q0 73-51 124t-124 51-124-51-51-124q0-96 50-185t125-90z m338 25q61 0 99 57t38 128q0 58-40 99t-97 41-97-41-41-99q0-71 39-128t99-57z m226-110l10-48q5-15-10-26-75-38-163-41-10-1-30-1l-11 72q-12 69-67 111 25-7 45-7 58 0 106 41 10-10 18-12l41-17q50-19 61-72z m-254-52l15-89q2-16-11-25-12-7-33-16t-99-21-182-12-182 12-99 21-33 16q-13 9-11 25l15 89q6 38 32 66t62 35l83 20q13 2 21 12 55-46 113-46t111 46q12-11 21-12l83-20q37-8 63-35t31-66z" horiz-adv-x="1000" />
<glyph glyph-name="guillemotright" unicode="&#xe8a0;" d="m775 175q4 0 10 2 15 7 15 23v450q0 11-8 19-41 31-117 31-35 0-89-12-65-13-111-13-37 0-69 17t-45 29-15 18q-12 15-28 10-18-5-18-24v-450q0-9 4-14l3-3q3-4 7-9t11-11 15-14 19-14 23-13 27-11 31-8 35-3q57 0 123 15 50 10 77 10 46 0 84-19 6-6 16-6z m-550-225q11 0 18 7t7 18v750q0 11-7 18t-18 7-18-7-7-18v-750q0-11 7-18t18-7z m125 333v383q57-41 125-41 56 0 122 15 52 10 78 10 49 0 75-14v-396q-36 10-75 10-34 0-88-12-65-13-112-13-75 0-125 58z" horiz-adv-x="1000" />
<glyph glyph-name="paragraph-1" unicode="&#xe8a1;" d="m350 700q0-62 44-106t106-44 106 44 44 106-44 106-106 44-106-44-44-106z m250 0q0-41-29-70t-71-30-70 30-30 70 30 71 70 29 71-29 29-71z m-250-350q0-62 44-106t106-44 106 44 44 106-44 106-106 44-106-44-44-106z m250 0q0-41-29-70t-71-30-70 30-30 70 30 71 70 29 71-29 29-71z m-250-350q0-62 44-106t106-44 106 44 44 106-44 106-106 44-106-44-44-106z m250 0q0-41-29-71t-71-29-70 29-30 71 30 71 70 29 71-29 29-71z" horiz-adv-x="1000" />
<glyph glyph-name="mu" unicode="&#xe8a2;" d="m500 250q-58 0-105 50t-71 117-24 133q0 82 59 141t141 59 141-59 59-141q0-112-59-206t-141-94z m0 450q-62 0-106-44t-44-106q0-89 45-169t105-81q39 0 75 39t55 97 20 114q0 62-44 106t-106 44z m-253-337q-2-4-4-6l-100-100q-7-7-18-7t-18 7q-16 18 0 36l58 57h-140q-11 0-18 7t-7 18 7 18 18 7h140l-58 57q-16 18 0 36 18 16 36 0l100-100q2-2 4-6 3-6 3-12t-3-12z m591-257l11-51q3-14-6-23-109-82-343-82t-343 82q-9 9-6 23l11 54q8 34 32 59t58 34l112 30q10 3 18 11 18 16 36 0 16-18 0-36-19-17-41-23l-112-30q-20-5-34-20t-20-36l-8-38q95-60 297-60 207 0 297 60l-8 35q-5 20-19 35t-33 20l-115 34q-22 6-39 23-7 7-7 18t7 17 18 8 17-7q6-8 18-11l115-34q33-9 56-34t31-58z" horiz-adv-x="1000" />
<glyph glyph-name="plusminus-1" unicode="&#xe8a3;" d="m873 607q55-257 0-514-9-44-40-75t-76-41q-127-27-257-27-129 0-257 27-44 9-75 41t-41 75q-55 257 0 514 9 43 41 75t75 41q128 27 257 27 130 0 257-27 44-9 76-40t40-76z m-49-504q53 247 0 494-6 29-27 50t-50 27q-124 26-247 26t-247-26q-29-6-50-27t-27-50q-53-247 0-494 6-29 27-50t50-27q124-26 247-26t247 26q29 6 50 27t27 50z m-486 247q15 0 26-11t11-26q0-16-11-27t-26-11q-16 0-27 11t-11 27q0 15 11 26t27 11z m325 0q15 0 26-11t11-26q0-16-11-27t-26-11q-16 0-27 11t-11 27q0 15 11 26t27 11z m-60-156q8-7 10-17t-6-18q-7-9-19-9-10 0-16 6l-4 2q-3 2-9 5t-14 6-20 4-25 2-25-2-20-4-14-6-9-5l-4-2q-19-15-35 3-15 21 4 35 4 4 14 10t35 14 54 7 55-7 35-14 13-10z" horiz-adv-x="1000" />
<glyph glyph-name="macron" unicode="&#xe8a4;" d="m874 300h2q10 0 17 7t8 16v19 8q0 166-117 283t-283 117h-25q-10 0-17-7t-8-18 8-18 17-7h25q145 0 248-102t102-248v-9-14q-1-10 6-18t17-9z m-373-350q127 0 231 74t146 193q7 23-16 32-10 3-19-1t-12-15q-38-104-128-168t-202-65q-145 0-247 103t-103 247q0 111 64 202t169 127q10 4 15 13t0 19q-9 23-32 16-119-43-192-146t-74-231q0-166 117-283t283-117z m225 350q10 0 18 7t7 18v25q0 104-73 177t-177 73h-25q-10 0-17-7t-8-18 8-18 17-7h25q83 0 142-59t58-141v-25q0-11 8-18t17-7z m-225-50q41 0 71 30t29 70-29 71-71 29-70-29-30-71 30-70 70-30z m0 150q20 0 35-14t15-36-15-35-35-15q-21 0-35 15t-15 35 15 36 35 14z" horiz-adv-x="1000" />
<glyph glyph-name="registered-1" unicode="&#xe8a5;" d="m749 287l94-94q11-10 6-25-5-16-20-17l-325-50h-4q-10 0-17 7l-225 225q-9 7-7 21l50 325q1 15 17 20 15 5 25-6l94-94q31 47 81 74t107 27q93 0 159-66t66-159q0-58-27-107t-74-81z m-124 363q-51 0-93-27t-65-72q0-4-3-7-14-33-14-69 0-73 51-124t124-51q36 0 69 14 3 3 7 3 45 22 72 65t27 93q0 72-51 124t-124 51z m-116-498l264 41-71 71q-37-14-77-14-93 0-159 66t-66 159q0 40 14 77l-71 71-41-264z m23 230q-16 18 0 36l58 57-58 57q-16 18 0 36 18 16 36 0l57-58 57 58q18 16 36 0 16-18 0-36l-58-57 58-57q16-18 0-36-7-7-18-7t-18 7l-57 58-57-58q-7-7-18-7t-18 7z m-207-372l83 83q18 17 35 0t0-35l-83-83q-24-25-59-25t-60 25l-116 116q-25 25-25 60t25 59l83 83q18 17 35 0t0-35l-83-83q-10-11-10-25t10-24l116-116q10-10 24-10t25 10z" horiz-adv-x="1000" />
<glyph glyph-name="uni00AD" unicode="&#xe8a6;" d="m500 250q-58 0-105 50t-71 117-24 133q0 82 59 141t141 59 141-59 59-141q0-112-59-206t-141-94z m0 450q-62 0-106-44t-44-106q0-89 45-169t105-81q39 0 75 39t55 97 20 114q0 62-44 106t-106 44z m500-325q0-6-3-12-2-4-4-6l-100-100q-7-7-18-7t-18 7q-16 18 0 36l58 57h-140q-11 0-18 7t-7 18 7 18 18 7h140l-58 57q-16 18 0 36 18 16 36 0l100-100q2-2 4-6 3-6 3-12z m-162-269l11-51q3-14-6-23-109-82-343-82t-343 82q-9 9-6 23l11 54q8 34 32 59t58 34l112 30q10 3 18 11 18 16 36 0 16-18 0-36-19-17-41-23l-112-30q-20-5-34-20t-20-36l-8-38q95-60 297-60 207 0 297 60l-8 35q-5 20-19 35t-33 20l-115 34q-22 6-39 23-7 7-7 18t7 17 18 8 17-7q6-8 18-11l115-34q33-9 56-34t31-58z" horiz-adv-x="1000" />
<glyph glyph-name="logicalnot-1" unicode="&#xe8a7;" d="m375 550h225q62 0 106-44t44-106-44-106-106-44h-265l58-57q16-18 0-36-7-7-18-7t-18 7l-99 100q-8 7-8 18t8 18l99 100q18 16 36 0 16-18 0-36l-58-57h265q41 0 71 30t29 70-29 71-71 29h-225q-11 0-18 7t-7 18 7 18 18 7z" horiz-adv-x="1000" />
<glyph glyph-name="section-1" unicode="&#xe8a8;" d="m335 350h440q11 0 18-7t7-18-7-18-18-7h-440l208-207q16-18 0-36-7-7-18-7t-18 7l-250 250q-2 2-4 6-3 6-3 12t3 12q2 4 4 6l250 250q18 16 36 0 16-18 0-36z" horiz-adv-x="1000" />
<glyph glyph-name="sterling-1" unicode="&#xe8a9;" d="m650 700l-100-350h150l-350-550 100 350h-150z" horiz-adv-x="1000" />
<glyph glyph-name="yen-1" unicode="&#xe8aa;" d="m315 769l185-155-267-165-183 147z m635-173l-183-147-267 165 185 155z m-900-294l183 147 267-165-185-154z m450-18l267 165 183-147-265-172z m1-33l185-154 80 52v-58l-265-160-266 160v58l80-52z" horiz-adv-x="1000" />
<glyph glyph-name="cent-1" unicode="&#xe8ab;" d="m500 400h425q11 0 18-7t7-18-7-18-18-7h-425v-425q0-11-7-18t-18-7-18 7-7 18v425h-425q-11 0-18 7t-7 18 7 18 18 7h425v425q0 11 7 18t18 7 18-7 7-18v-425z" horiz-adv-x="1000" />
<glyph glyph-name="z-1" unicode="&#xe8ac;" d="m425 100q134 0 230 96t95 229-95 230-230 95-229-95-96-230 96-229 229-96z m0 600q114 0 195-80t80-195-80-194-195-81-194 81-81 194 81 195 194 80z m450-750q11 0 18 7 16 18 0 36l-175 175q-18 16-36 0-16-18 0-36l175-175q7-7 18-7z" horiz-adv-x="1000" />
<glyph glyph-name="y-1" unicode="&#xe8ad;" d="m875 750q11 0 18-7t7-18v-250q0-11-7-18t-18-7h-225q-10 0-17 7t-8 18 8 18 17 7h171l-1 1q-32 41-53 65t-64 61-93 55-110 18q-145 0-247-102t-103-248v-25q0-11-7-18t-18-7-18 7-7 18v25q0 166 117 283t283 117q52 0 101-14t83-35 69-51 54-53 43-53v181q0 11 7 18t18 7z m0-350q11 0 18-7t7-18v-25q0-166-117-283t-283-117q-52 0-101 14t-83 35-69 52-54 53-43 52v-181q0-11-7-18t-18-7-18 7-7 18v250q0 11 7 18t18 7h225q10 0 18-7t7-18-7-18-18-7h-171l1-1q32-41 54-65t63-60 93-55 110-19q145 0 248 103t102 247v25q0 11 7 18t18 7z" horiz-adv-x="1000" />
<glyph glyph-name="x-1" unicode="&#xe8ae;" d="m125 550h750q11 0 18 7t7 18-7 18-18 7h-750q-10 0-17-7t-8-18 8-17 17-8z m0-250h750q11 0 18 7t7 18-7 18-18 7h-750q-10 0-17-7t-8-18 8-17 17-8z m0-250h750q11 0 18 7t7 18-7 18-18 7h-750q-10 0-17-7t-8-18 8-17 17-8z" horiz-adv-x="1000" />
<glyph glyph-name="w-1" unicode="&#xe8af;" d="m625 0q-11 0-18 7l-325 325q-16 18 0 36l325 325q18 16 36 0 16-18 0-36l-308-307 308-307q16-18 0-36-7-7-18-7z" horiz-adv-x="1000" />
<glyph glyph-name="v-1" unicode="&#xe8b0;" d="m856 706q43-43 43-104 0-62-43-105l-370-369q-8-8-17-8-10 0-18 8-17 18 0 35l369 370q29 27 29 69 0 40-29 69t-70 29-71-29l-368-368q-7-7-17-7t-18 7-8 17 8 18l368 368q44 44 106 44t106-44z m-653-291l-47 92-92 47q-14 6-14 22t14 22l92 47 47 92q6 13 22 13t22-13l47-92 92-47q14-6 14-22t-14-22l-92-47-47-92q-6-14-22-14t-22 14z m-17 189l-55-28 55-28q8-3 11-11l28-55 28 55q3 8 11 11l55 28-55 28q-8 3-11 11l-28 55-28-55q-3-8-11-11z m238-522q3-13-6-22l-1-1q-3-4-122-47l-1-1h-1l-1-1h-1-1l-1-1h-1-1l-1-1h-1-1l-1-1h-1l-2-1q-85-31-147-53-2-1-8-1-11 0-18 7-11 11-6 26l100 274q7 22 30 17 73-17 125-69t68-125z m-184 139l-73-203 202 74q-15 45-49 79t-80 50z" horiz-adv-x="1000" />
<glyph glyph-name="u-1" unicode="&#xe8b1;" d="m475-50q155 0 265 110t110 265-110 265-265 110-265-110-110-265 110-265 265-110z m0 700q134 0 230-95t95-230-95-229-230-96-229 96-96 229 96 230 229 95z m0-204q13 0 20 9 9 7 9 20 0 12-9 21-8 8-20 8t-20-8q-9-9-9-21t9-21q8-8 20-8z m0-296q11 0 18 7t7 18v200q0 11-7 18t-18 7-18-7-7-18v-200q0-11 7-18t18-7z" horiz-adv-x="1000" />
<glyph glyph-name="t-1" unicode="&#xe8b2;" d="m862 182q17-19 18-45t-14-47q-21-30-49-58t-58-49q-21-15-46-14t-46 18q-82-37-168-37t-168 37q-19-17-45-18t-47 14q-27 18-58 49-28 28-49 58-19 27-13 57 3 19 17 35-37 78-37 168t37 168q-17 20-18 46t14 46q18 27 49 58 30 30 58 50 21 14 47 13t45-18q80 37 169 37t167-37q19 17 45 18t47-13q32-24 58-50 31-31 49-58 15-20 14-46t-18-46q37-78 37-168t-37-168z m-284 405l58 85q-136 58-274 0l58-85q36 13 79 13t79-13z m-406-6q-5-9-4-19 1-4 3-7t4-5l3-4 3-2 102-69q33 58 91 91-61 92-71 104-5 9-15 11t-20-4q-56-41-96-96z m539 100q-10-1-16-11l-71-104q58-33 91-91l104 71q9 6 11 16 1 10-4 19-21 29-44 52t-52 44q-9 6-19 4z m-212-531q83 0 142 59t58 141-58 141-142 59-141-59-59-141 59-141 141-59z m-322 63l85 58q-13 41-13 79t13 79l-85 58q-28-65-28-137t28-137z m559 58l85-58q28 65 28 137t-28 137l-85-58q13-41 13-79t-13-79z m-468-248q8-5 19-3t16 10l71 104q-58 33-91 91l-102-69q-10-7-13-18-1-8 4-19 21-29 44-52 16-16 52-44z m558 96q5 11 4 19-2 11-11 16l-104 71q-33-58-91-91l71-104q4-8 16-11 9-1 19 5 32 23 52 43 23 23 44 52z m-406-6l-58-85q137-58 274 0l-58 85q-41-13-79-13t-79 13z" horiz-adv-x="1000" />
<glyph glyph-name="s-1" unicode="&#xe8b3;" d="m863 713q37-35 37-88t-37-88l-107-108q-10-10-10-25t10-24l19-20q25-25 25-60t-25-60l-32-33q-7-7-18-7t-18 7q-16 18 0 36l33 32q10 11 10 25t-10 25l-20 19q-24 24-24 60t24 60l108 108q22 22 22 53t-22 53q-21 21-53 21t-53-21l-108-107q-25-25-60-25t-60 25l-19 19q-11 10-25 10t-25-10l-32-33q-18-16-36 0-16 18 0 36l33 32q24 24 60 24t60-24l20-19q10-10 24-10t25 10l108 107q36 37 88 37t88-37z m-70-105q-10-8-18-8-9 0-18 7-7 7-7 18t7 18 18 7 17-7q8-7 8-18 0-10-7-17z m-450-65l349-350q7-6 7-17t-7-18q-100-100-170-221-7-11-19-12h-3q-9 0-18 7l-400 400q-8 10-7 21 1 12 12 19 119 70 220 171 18 16 36 0z m55-456l97-97q64 102 144 185l-314 315q-88-83-185-145l97-97 95 95q18 16 36 0 16-18 0-36l-95-95 89-89 95 95q18 16 36 0 16-18 0-36z" horiz-adv-x="1000" />
<glyph glyph-name="r-1" unicode="&#xe8b4;" d="m875 450q11 0 18 7t7 18q0 114-80 195t-195 80q-11 0-18-7t-7-18 7-18 18-7q93 0 159-66t66-159q0-11 7-18t18-7z m-375-350q3 0 4 1l325 50q15 2 20 17 4 13-6 25l-500 500q-12 10-25 6-15-5-17-20l-50-325q-2-14 7-21l225-225q6-8 17-8z m-198 259l41 264 430-430-264-41z m423 91q11 0 18 7t7 18q0 52-36 89t-89 36q-11 0-18-7t-7-18 7-18 18-7q31 0 53-22t22-53q0-11 7-18t18-7z m-425-500q34 0 60 24l83 84q17 18 0 35-7 7-17 7t-18-7l-84-83q-10-10-24-10t-24 10l-116 116q-10 10-10 24 0 15 10 24l83 84q7 7 7 18t-7 17q-17 17-35 0l-83-83q-25-25-25-60 0-34 25-59l116-117q24-24 59-24z" horiz-adv-x="1000" />
<glyph glyph-name="q" unicode="&#xe8b5;" d="m800 500q62 0 106 44t44 106-44 106-106 44-106-44-44-106 44-106 106-44z m0 250q41 0 71-29t29-71-29-70-71-30-70 30-30 70 30 71 70 29z m-575-800h500q52 0 89 36t36 89v350q0 11-7 18t-18 7-18-7-7-18v-350q0-31-22-53t-53-22h-500q-31 0-53 22t-22 53v500q0 31 22 53t53 22h350q11 0 18 7t7 18-7 18-18 7h-350q-52 0-88-36t-37-89v-500q0-52 37-89t88-36z" horiz-adv-x="1000" />
<glyph glyph-name="p-1" unicode="&#xe8b6;" d="m200 600h75q11 0 18-7t7-18-7-18-18-7h-75v-75q0-11-7-18t-18-7-18 7-7 18v75h-75q-11 0-18 7t-7 18 7 18 18 7h75v75q0 11 7 18t18 7 18-7 7-18v-75z m675-50h-500q-11 0-18 7t-7 18 7 18 18 7h500q11 0 18-7t7-18-7-18-18-7z m-725-150h50q21 0 36-14t14-36v-50q0-21-14-35t-36-15h-50q-21 0-35 15t-15 35v50q0 21 15 36t35 14z m50-100v50h-50v-50h50z m175 50h500q11 0 18-7t7-18-7-18-18-7h-500q-11 0-18 7t-7 18 7 18 18 7z m-225-200h50q21 0 36-14t14-36v-50q0-21-14-35t-36-15h-50q-21 0-35 15t-15 35v50q0 21 15 36t35 14z m50-100v50h-50v-50h50z m175 50h500q11 0 18-7t7-18-7-18-18-7h-500q-11 0-18 7t-7 18 7 18 18 7z" horiz-adv-x="1000" />
<glyph glyph-name="o-1" unicode="&#xe8b7;" d="m226 700h550q52 0 89-36t36-89v-450q0-52-36-88t-89-37h-550q-52 0-88 37t-37 88v450q0 52 37 89t88 36z m625-575v450q0 31-22 53t-53 22h-550q-31 0-53-22t-22-53v-450q0-31 22-53t53-22h550q31 0 53 22t22 53z m-525 275q-31 0-53 22t-22 53 22 53 53 22 53-22 22-53-22-53-53-22z m0 100q-10 0-17-7t-8-18 8-18 17-7 18 7 7 18-7 18-18 7z m368-107l100-100q16-18 0-36-18-16-36 0l-82 83-232-233q-7-7-18-7t-18 7q-16 18 0 36l83 82-65 65-182-183q-7-7-18-7t-18 7q-16 18 0 36l200 200q18 16 36 0l82-83 132 133q18 16 36 0z" horiz-adv-x="1000" />
<glyph glyph-name="n-1" unicode="&#xe8b8;" d="m475 200q11 0 18-7t7-18v-100q0-52-36-89t-89-36h-150q-52 0-88 36t-37 89v500q0 52 37 89t88 36h150q52 0 89-36t36-89v-100q0-11-7-18t-18-7-18 7-7 18v100q0 31-22 53t-53 22h-150q-31 0-53-22t-22-53v-500q0-31 22-53t53-22h150q31 0 53 22t22 53v100q0 11 7 18t18 7z m425 125q0-6-3-12-2-4-4-6l-200-200q-7-7-18-7t-18 7q-16 18 0 36l158 157h-440q-11 0-18 7t-7 18 7 18 18 7h440l-158 157q-16 18 0 36 18 16 36 0l200-200q2-2 4-6 3-6 3-12z" horiz-adv-x="1000" />
<glyph glyph-name="m-1" unicode="&#xe8b9;" d="m760 343l38-46q52-65 52-144v-28q0-11-7-18t-18-7h-650q-11 0-18 7t-7 18v28q0 79 52 144l38 45q35 41 40 98l6 63q5 69 51 122t113 69v6q0 21 15 36t35 14 36-14 14-36v-6q67-16 113-69t51-122l6-63q5-55 40-97z m40-193v3q0 63-41 112l-38 45q-45 56-51 126l-5 63q-5 63-53 107t-112 44-112-44-53-107l-5-63q-6-72-51-126l-38-45q-41-49-41-112v-3h600z m-185-105q8-6 10-16t-6-19q-44-60-119-60t-119 60q-7 8-5 19t9 16 19 5 16-10q29-38 80-38t79 38q7 8 18 10t18-5z" horiz-adv-x="1000" />
<glyph glyph-name="l-1" unicode="&#xe8ba;" d="m760 343l38-46q52-65 52-144v-28q0-11-7-18t-18-7h-650q-11 0-18 7t-7 18v28q0 79 52 144l38 45q35 41 40 98l6 63q5 69 51 122t113 69v6q0 21 15 36t35 14 36-14 14-36v-6q67-16 113-69t51-122l6-63q5-55 40-97z m40-193v3q0 63-41 112l-38 45q-45 56-51 126l-5 63q-5 63-53 107t-112 44-112-44-53-107l-5-63q-6-72-51-126l-38-45q-41-49-41-112v-3h600z m-185-105q8-6 10-16t-6-19q-44-60-119-60t-119 60q-7 8-5 19t9 16 19 5 16-10q29-38 80-38t79 38q7 8 18 10t18-5z" horiz-adv-x="1000" />
<glyph glyph-name="k-1" unicode="&#xe8bb;" d="m500 250q82 0 141 94t59 206q0 82-59 141t-141 59-141-59-59-141q0-65 24-133t71-117 105-50z m0 450q62 0 106-44t44-106q0-57-20-114t-55-97-75-39q-60 0-105 81t-45 169q0 62 44 106t106 44z m0-750q234 0 343 82 9 9 6 23l-11 51q-8 33-31 58t-56 34l-115 34q-12 3-18 11-7 7-17 7t-18-8-7-17 7-18q17-17 39-23l115-34q19-5 33-20t19-35l8-35q-90-60-297-60-202 0-297 60l8 38q5 20 20 36t34 20l112 30q22 6 41 23 16 18 0 36-18 16-36 0-8-8-18-11l-112-30q-34-9-58-34t-32-59l-11-54q-3-14 6-23 109-82 343-82z" horiz-adv-x="1000" />
<glyph glyph-name="i-1" unicode="&#xe8bc;" d="m225-50h550q52 0 89 36t36 89v550q0 52-36 89t-89 36h-550q-52 0-88-36t-37-89v-550q0-52 37-89t88-36z m0 750h550q31 0 53-22t22-53v-550q0-31-22-53t-53-22h-550q-31 0-53 22t-22 53v550q0 31 22 53t53 22z m150-600q11 0 18 7l225 225q16 18 0 36l-225 225q-18 16-36 0-16-18 0-36l208-207-208-207q-16-18 0-36 7-7 18-7z" horiz-adv-x="1000" />
<glyph glyph-name="j-1" unicode="&#xe8bd;" d="m600 650h125q31 0 53-22t22-53v-100q0-11-7-18t-18-7h-550q-11 0-18 7t-7 18v100q0 31 22 53t53 22h125q0 41 30 71t70 29 71-29 29-71z m-100 50q-21 0-35-14t-15-36h100q0 21-14 36t-36 14z m250-200v75q0 11-7 18t-18 7h-450q-11 0-18-7t-7-18v-75h500z m-25-100q11 0 18-7t7-18v-350q0-31-22-53t-53-22h-350q-31 0-53 22t-22 53v350q0 11 7 18t18 7 18-7 7-18v-350q0-11 7-18t18-7h350q11 0 18 7t7 18v350q0 11 7 18t18 7z m-275-25v-300q0-11-7-18t-18-7-18 7-7 18v300q0 11 7 18t18 7 18-7 7-18z m150 0v-300q0-11-7-18t-18-7-18 7-7 18v300q0 11 7 18t18 7 18-7 7-18z" horiz-adv-x="1000" />
<glyph glyph-name="h-1" unicode="&#xe8be;" d="m800 625v-200q0-11-7-18t-18-7-18 7-7 18v140l-257-258q-7-7-18-7t-18 7q-16 18 0 36l258 257h-140q-11 0-18 7t-7 18 7 18 18 7h201 1 2 1q0-1 1-1h1 1l1-1h2q0-1 1-1h1l9-9v-1q0-1 1-1t0-1v-1l1-1v-1-1q0-1 1-1v-2-1-2z m-125-275q11 0 18-7t7-18v-150q0-31-22-53t-53-22h-300q-31 0-53 22t-22 53v300q0 31 22 53t53 22h150q11 0 18-7t7-18-7-18-18-7h-150q-11 0-18-7t-7-18v-300q0-11 7-18t18-7h300q11 0 18 7t7 18v150q0 11 7 18t18 7z" horiz-adv-x="1000" />
<glyph glyph-name="g-1" unicode="&#xe8bf;" d="m876 350q10-1 17-8t6-19q-7-103-62-188t-144-136-192-49q-166 0-283 117t-117 283 117 283 283 117q64 0 121-19t100-55 71-63 56-67v179q0 10 8 18t17 7 18-7 7-18v-250q0-16-15-23-4-2-235-2-10 0-17 8t-8 17 8 18 17 7h172q0 1-1 1-24 31-40 51t-48 51-63 50-76 33-92 14q-145 0-247-102t-103-248 103-247 247-103q137 0 238 95t110 232q1 10 9 17t18 6z" horiz-adv-x="1000" />
<glyph glyph-name="f-1" unicode="&#xe8c0;" d="m876 350q10-1 17-8t6-19q-7-103-62-188t-144-136-192-49q-166 0-283 117t-117 283 117 283 283 117q64 0 121-19t100-55 71-63 56-67v179q0 10 8 18t17 7 18-7 7-18v-250q0-16-15-23-4-2-235-2-10 0-17 8t-8 17 8 18 17 7h172q0 1-1 1-24 31-40 51t-48 51-63 50-76 33-92 14q-145 0-247-102t-103-248 103-247 247-103q137 0 238 95t110 232q1 10 9 17t18 6z m-402 250q10 0 18-7t7-18v-225h175q10 0 18-7t7-18-7-18-18-7h-200q-10 0-17 8t-8 17v250q0 10 8 18t17 7z" horiz-adv-x="1000" />
<glyph glyph-name="e-1" unicode="&#xe8c1;" d="m162 520q12-21-11-34-6-2-11-2-16 0-22 14-19 37-19 77 0 72 52 124t123 51q58 0 104-35 8-6 10-16t-5-19q-6-8-16-9t-19 4q-34 25-74 25-52 0-88-36t-37-89q0-26 13-55z m562 230q73 0 124-51t51-124q0-39-18-77-8-14-23-14-3 0-11 2-9 5-12 15t1 19q13 26 13 55 0 52-36 89t-89 36q-40 0-74-25-8-6-18-4t-17 9-4 19 9 16q47 35 104 35z m125-450q0-151-110-255l53-52q16-18 0-36-7-7-18-7t-18 7l-56 57q-91-64-201-64t-201 64l-56-57q-7-7-18-7t-18 7q-16 18 0 36l53 52q-110 104-110 255 0 145 103 248t247 102 248-102 102-248z m-650 0q0-124 88-212t212-88 212 88 88 212-88 212-212 88-212-88-88-212z m325 200q10 0 18-7t7-18v-200q0-11-7-18t-18-7h-152q-10 0-17 8t-8 17 8 18 17 7h127v175q0 11 8 18t17 7z" horiz-adv-x="1000" />
<glyph glyph-name="d-1" unicode="&#xe8c2;" d="m475 150h3q13 2 18 12 221 369 497 645 16 18 0 36-18 16-36 0-272-272-487-628-110 105-231 181-9 6-19 4t-16-12q-5-8-3-18t11-16q134-84 245-197 9-7 18-7z m-250-200h550q52 0 89 36t36 89v475q0 10-7 18t-18 7-18-7-7-18v-475q0-31-22-53t-53-22h-550q-31 0-53 22t-22 53v550q0 31 22 53t53 22h500q11 0 18 7t7 18-7 18-18 7h-500q-52 0-88-36t-37-89v-550q0-52 37-89t88-36z" horiz-adv-x="1000" />
<glyph glyph-name="c-1" unicode="&#xe8c3;" d="m175 750h650q31 0 53-22t22-53v-150q0-11-7-18t-18-7h-750q-11 0-18 7t-7 18v150q0 31 22 53t53 22z m675-200v125q0 11-7 18t-18 7h-650q-11 0-18-7t-7-18v-125h700z m25-100q11 0 18-7t7-18v-400q0-31-22-53t-53-22h-650q-31 0-53 22t-22 53v400q0 11 7 18t18 7 18-7 7-18v-400q0-11 7-18t18-7h650q11 0 18 7t7 18v400q0 11 7 18t18 7z m-469-206q1 2 7 17 2 6 2 19 0 17-8 25-9 9-24 9-5 0-13-2-8-4-10-6-4-2-8-8-3-3-5-10-3-10-9-11-5-3-14-2l-26 5q3 17 11 32t19 23q9 8 26 13 11 5 31 5 16 0 33-5 16-7 25-15 10-10 16-23 5-13 5-29t-4-25q-2-10-10-23-10-14-16-20l-19-21-53-54q7 2 17 4 12 2 16 2h57q7 0 12-5 4-4 4-11v-28h-173v16q0 6 1 9 3 6 7 10l74 74q6 7 17 18 6 8 12 17z m144-144l93 186 7 12q1 2 4 6t4 4h-115q-3 0-8 3-3 3-3 8v31h174v-20q0-11-2-15l-3-9-91-190q-4-6-10-11-7-5-16-5h-34z" horiz-adv-x="1000" />
<glyph glyph-name="b-1" unicode="&#xe8c4;" d="m175 750h650q31 0 53-22t22-53v-150q0-11-7-18t-18-7h-750q-11 0-18 7t-7 18v150q0 31 22 53t53 22z m675-200v125q0 11-7 18t-18 7h-650q-11 0-18-7t-7-18v-125h700z m25-100q11 0 18-7t7-18v-400q0-31-22-53t-53-22h-650q-31 0-53 22t-22 53v400q0 11 7 18t18 7 18-7 7-18v-400q0-11 7-18t18-7h650q11 0 18 7t7 18v400q0 11 7 18t18 7z m-469-206q1 2 7 17 2 6 2 19 0 17-8 25-9 9-24 9-5 0-13-2-8-4-10-6-4-2-8-8-3-3-5-10-3-10-9-11-5-3-14-2l-26 5q3 17 11 32t19 23q9 8 26 13 11 5 31 5 16 0 33-5 16-7 25-15 10-10 16-23 5-13 5-29t-4-25q-2-10-10-23-10-14-16-20l-19-21-53-54q7 2 17 4 12 2 16 2h57q7 0 12-5 4-4 4-11v-28h-173v16q0 6 1 9 3 6 7 10l74 74q6 7 17 18 6 8 12 17z m144-144l93 186 7 12q1 2 4 6t4 4h-115q-3 0-8 3-3 3-3 8v31h174v-20q0-11-2-15l-3-9-91-190q-4-6-10-11-7-5-16-5h-34z" horiz-adv-x="1000" />
<glyph glyph-name="a-1" unicode="&#xe8c5;" d="m710 735l138-300q9-23-13-33-6-2-10-2-15 0-23 15l-39 85h-176l-39-85q-5-10-14-13t-19 0q-22 10-13 33l138 300q7 15 23 15h25q15 0 22-15z m-428-36h1q6-2 66-62 26-27 44-44 16-18 0-36-7-7-18-7t-18 7l-57 58v-190q0-11-7-18t-18-7-18 7-7 18v190l-57-58q-18-16-36 0-16 18 0 36l100 99q7 7 13 8 8 0 12-1z m328-149h130l-65 142z m-310-465l57 58q18 16 36 0 16-18 0-36l-100-99q-8-10-23-8-7 1-20 14l-93 93q-16 18 0 36 18 16 36 0l57-58v190q0 11 7 18t18 7 18-7 7-18v-190z m497 202q7-14-1-26l-174-261h153q11 0 18-7t7-18-7-18-18-7h-200q-15 0-22 13-7 14 1 26l174 261h-153q-11 0-18 7t-7 18 7 18 18 7h200q15 0 22-13z" horiz-adv-x="1000" />
<glyph glyph-name="underscore-1" unicode="&#xe8c6;" d="m500 149l-300 351h600z" horiz-adv-x="1000" />
<glyph glyph-name="backslash-1" unicode="&#xe8c7;" d="m475 150h3q13 2 18 12 221 369 497 645 16 18 0 36-18 16-36 0-272-272-487-628-110 105-231 181-9 6-19 4t-16-12q-5-8-3-18t11-16q134-84 245-197 9-7 18-7z m-250-200h550q52 0 89 36t36 89v475q0 10-7 18t-18 7-18-7-7-18v-475q0-31-22-53t-53-22h-550q-31 0-53 22t-22 53v550q0 31 22 53t53 22h500q11 0 18 7t7 18-7 18-18 7h-500q-52 0-88-36t-37-89v-550q0-52 37-89t88-36z" horiz-adv-x="1000" />
<glyph glyph-name="Z-1" unicode="&#xe8c8;" d="m275 600q-11 0-18 7t-7 18v100q0 11 7 18t18 7h450q11 0 18-7t7-18v-100q0-11-7-18t-18-7-18 7-7 18v75h-400v-75q0-11-7-18t-18-7z m-50-50h550q52 0 89-36t36-89v-300q0-11-7-18t-18-7h-125v-125q0-11-7-18t-18-7h-450q-11 0-18 7t-7 18v125h-125q-11 0-18 7t-7 18v300q0 52 37 89t88 36z m625-400v275q0 31-22 53t-53 22h-550q-31 0-53-22t-22-53v-275h100v100h-25q-11 0-18 7t-7 18 7 18 18 7h550q11 0 18-7t7-18-7-18-18-7h-25v-100h100z m-150-150v250h-400v-250h400z" horiz-adv-x="1000" />
<glyph glyph-name="Y-1" unicode="&#xe8c9;" d="m750 400h25q31 0 53-22t22-53v-300q0-31-22-53t-53-22h-550q-31 0-53 22t-22 53v300q0 31 22 53t53 22h25v150q0 104 73 177t177 73 177-73 73-177v-150z m-450 150v-150h400v150q0 82-59 141t-141 59-141-59-59-141z m200 150q62 0 106-44t44-106v-75q0-11-7-18t-18-7-18 7-7 18v75q0 41-29 71t-71 29-70-29-30-71v-75q0-11-7-18t-18-7-18 7-7 18v75q0 62 44 106t106 44z m300-675v300q0 11-7 18t-18 7h-550q-11 0-18-7t-7-18v-300q0-11 7-18t18-7h550q11 0 18 7t7 18z" horiz-adv-x="1000" />
<glyph glyph-name="X-1" unicode="&#xe8ca;" d="m225 0h550q52 0 89 37t36 88v450q0 52-36 89t-89 36h-550q-52 0-88-36t-37-89v-450q0-52 37-88t88-37z m0 650h550q31 0 53-22t22-53v-450q0-31-22-53t-53-22h-550q-31 0-53 22t-22 53v450q0 31 22 53t53 22z m275-375q11 0 18 7l275 275q16 18 0 36-18 16-36 0l-257-258-257 258q-18 16-36 0-16-18 0-36l275-275q7-7 18-7z" horiz-adv-x="1000" />
<glyph glyph-name="W-1" unicode="&#xe8cb;" d="m500 250q-58 0-105 50t-71 117-24 133q0 82 59 141t141 59 141-59 59-141q0-112-59-206t-141-94z m0 450q-62 0-106-44t-44-106q0-89 45-169t105-81q39 0 75 39t55 97 20 114q0 62-44 106t-106 44z m-350-350v-75q0-11-7-18t-18-7-18 7-7 18v75h-75q-11 0-18 7t-7 18 7 18 18 7h75v75q0 11 7 18t18 7 18-7 7-18v-75h75q11 0 18-7t7-18-7-18-18-7h-75z m688-244l11-51q3-14-6-23-109-82-343-82t-343 82q-9 9-6 23l11 54q8 34 32 59t58 34l112 30q10 3 18 11 18 16 36 0 16-18 0-36-19-17-41-23l-112-30q-20-5-34-20t-20-36l-8-38q95-60 297-60 207 0 297 60l-8 35q-5 20-19 35t-33 20l-115 34q-22 6-39 23-7 7-7 18t7 17 18 8 17-7q6-8 18-11l115-34q33-9 56-34t31-58z" horiz-adv-x="1000" />
<glyph glyph-name="V-1" unicode="&#xe8cc;" d="m388 185l-85-84-101-101-54 53 91 90q-101 80-138 204l-1 3 1 3q40 132 151 214t248 82h2q107-2 195-50l101 101 54-53-91-90-96-95-73-73-131-131z m112 364q-83 0-141-58t-59-141q0-61 35-112l73 73q-8 19-8 39 0 41 30 71t70 29q20 0 39-8l73 73q-52 34-112 34z m196-162l119 118q61-70 85-155-39-132-149-215t-249-84h-2q-60 0-122 19l85 84q18-3 37-3 83 0 142 59t58 140q0 21-4 37z" horiz-adv-x="1000" />
<glyph glyph-name="U-1" unicode="&#xe8cd;" d="m500 650h2q138-1 249-84t149-216q-39-133-149-216t-249-84h-2q-138 0-248 83t-151 214l-1 3 1 3q40 133 151 215t248 82z m0-500q82 0 141 59t59 141-59 141-141 59-141-59-59-141 59-141 141-59z m0 300q41 0 71-29t29-71-29-70-71-30-70 30-30 70 30 71 70 29z" horiz-adv-x="1000" />
<glyph glyph-name="T-1" unicode="&#xe8ce;" d="m671 586l64-65q15-14 15-35t-15-36l-84-84v-78q0-73-51-124l-57-56q-6-7-17-7t-18 7l-107 108-108-108q-6-7-17-7t-18 7q-8 8-8 18t8 18l107 107-107 107q-8 8-8 18t8 18l56 56q51 51 124 51h77l85 85q14 14 36 14t35-14z" horiz-adv-x="1000" />
<glyph glyph-name="S-1" unicode="&#xe8cf;" d="m350 0q104 0 177 73l322 322q51 51 51 124t-51 124q-49 49-124 49t-124-49l-322-322q-29-29-29-71t29-71q28-28 71-28t71 28l228 228q7 7 7 18t-7 18-18 7-18-7l-228-228q-14-14-35-14t-35 14q-15 14-15 35t15 35l322 322q35 36 88 36t88-36q37-35 37-88t-37-88l-322-322q-56-57-141-57t-141 57q-59 57-59 141t59 141l265 266q8 7 8 18t-8 17q-8 8-18 8t-17-8l-266-265q-73-73-73-177t73-177 177-73z" horiz-adv-x="1000" />
<glyph glyph-name="R-1" unicode="&#xe8d0;" d="m313 100q73 0 125 57 28-7 62-7 103 0 177 66t73 159-73 159-177 66-176-66-74-159q0-47 32-113 18-36 18-52 1-37-37-58-15-8-13-26 3-16 19-21 25-5 44-5z m187 450q83 0 142-51t58-124q0-72-59-123t-141-52q-32 0-65 9-18 5-28-10-2-3-8-11t-25-20-39-16q15 26 15 59 0 27-23 73-27 56-27 91 0 73 59 124t141 51z" horiz-adv-x="1000" />
<glyph glyph-name="Q-2" unicode="&#xe8d1;" d="m670 586l65-65q14-14 14-35t-14-36l-85-84v-78q0-73-51-124l-56-56q-7-7-18-7t-17 7l-108 108-107-108q-7-7-18-7t-18 7q-16 18 0 36l108 107-108 108q-7 7-7 17 0 9 7 18l56 56q53 51 124 51h78l84 85q14 14 36 14t35-14z m-62-192l91 92-64 64-92-91q-8-8-18-8h-88q-52 0-88-36l-39-39 215-215 39 39q36 36 36 88v88q0 10 8 18z" horiz-adv-x="1000" />
<glyph glyph-name="P-2" unicode="&#xe8d2;" d="m125 500h750q11 0 18 7t7 18v150q0 31-22 53t-53 22h-650q-31 0-53-22t-22-53v-150q0-11 7-18t18-7z m25 50v125q0 11 7 18t18 7h650q11 0 18-7t7-18v-125h-700z m25-600h650q31 0 53 22t22 53v400q0 11-7 18t-18 7-18-7-7-18v-400q0-11-7-18t-18-7h-650q-11 0-18 7t-7 18v400q0 11-7 18t-18 7-18-7-7-18v-400q0-31 22-53t53-22z m250 300q31 0 53 22t22 53v50q0 31-22 53t-53 22-53-22-22-53v-50q0-31 22-53t53-22z m-150 50q11 0 18 7t7 18v50q0 11-7 18t-18 7-18-7-7-18v-50q0-11 7-18t18-7z m150 100q11 0 18-7t7-18v-50q0-11-7-18t-18-7-18 7-7 18v50q0 11 7 18t18 7z m150-100q11 0 18 7t7 18v50q0 11-7 18t-18 7-18-7-7-18v-50q0-11 7-18t18-7z m150 0q11 0 18 7t7 18v50q0 11-7 18t-18 7-18-7-7-18v-50q0-11 7-18t18-7z m-450-200q11 0 18 7t7 18v50q0 11-7 18t-18 7-18-7-7-18v-50q0-11 7-18t18-7z m150 0q11 0 18 7t7 18v50q0 11-7 18t-18 7-18-7-7-18v-50q0-11 7-18t18-7z m150 0q11 0 18 7t7 18v50q0 11-7 18t-18 7-18-7-7-18v-50q0-11 7-18t18-7z m150 0q11 0 18 7t7 18v50q0 11-7 18t-18 7-18-7-7-18v-50q0-11 7-18t18-7z" horiz-adv-x="1000" />
<glyph glyph-name="O-2" unicode="&#xe8d3;" d="m475 200q-72 0-123 52t-52 123v200q0 72 52 124t123 51 124-51 51-124v-200q0-72-51-123t-124-52z m-125 375v-200q0-52 37-88t88-37 89 37 36 88v200q0 52-36 89t-89 36-88-36-37-89z m400-150v-50q0-107-72-185t-178-89v-101h175q11 0 18-7t7-18-7-18-18-7h-400q-11 0-18 7t-7 18 7 18 18 7h175v101q-105 10-177 89t-73 185v50q0 11 7 18t18 7 18-7 7-18v-50q0-93 66-159t159-66 159 66 66 159v50q0 11 7 18t18 7 18-7 7-18z" horiz-adv-x="1000" />
<glyph glyph-name="N-2" unicode="&#xe8d4;" d="m857 707q43-43 43-104t-43-105l-370-371q-8-8-18-8-17 0-23 16t6 27l369 371q29 29 29 70t-29 69q-28 28-70 28t-71-28l-368-370q-18-16-36 0-16 18 0 36l369 369q42 43 106 43t106-43z m-432-625q3-14-6-23l-1-1q-3-4-127-49-90-33-157-57-15-6-26 5t-6 27l99 275q3 9 12 14t18 3q71-17 124-70t70-124z m-184 139l-74-204 203 74q-16 45-50 80t-79 50z" horiz-adv-x="1000" />
<glyph glyph-name="M-2" unicode="&#xe8d5;" d="m500 400h425q11 0 18-7t7-18-7-18-18-7h-425v-425q0-11-7-18t-18-7-18 7-7 18v425h-425q-11 0-18 7t-7 18 7 18 18 7h425v425q0 11 7 18t18 7 18-7 7-18v-425z" horiz-adv-x="1000" />
<glyph glyph-name="L-2" unicode="&#xe8d6;" d="m375 250q75 0 125 90t50 185q0 73-51 124t-124 51-124-51-51-124q0-96 50-185t125-90z m0 400q53 0 89-36t36-89q0-79-38-152t-87-73-86 73-39 152q0 53 36 89t89 36z m338-375q61 0 99 57t38 128q0 58-40 99t-97 41-97-41-41-99q0-71 39-128t99-57z m0 275q36 0 62-26t25-64q0-51-25-93t-62-42-62 42-26 93q0 37 26 64t62 26z m63-500q48 2 89 13t56 18 18 11q15 11 10 26l-10 48q-11 53-61 72l-41 16q-11 5-18 13t-17 9-18-6-9-17 6-18q14-17 37-27l42-16q26-12 30-37l7-29q-50-22-123-26-11-1-18-8t-6-18q2-24 26-24z m-401-100q65 0 121 5t88 11 58 14 34 13 13 7q13 8 11 25l-15 88q-6 37-31 65t-63 37l-83 19q-9 3-15 9-18 16-36 0-17-17 0-36 18-17 40-21l82-20q22-5 38-21t19-40l11-70q-85-35-272-35t-272 35l11 70q4 23 20 40t37 21l82 20q22 4 40 21 17 19 0 36-18 16-36 0-6-6-15-9l-83-19q-37-9-62-37t-32-65l-15-88q-2-17 11-25 6-3 14-7t33-13 58-14 88-11 121-5z" horiz-adv-x="1000" />
<glyph glyph-name="K-2" unicode="&#xe8d7;" d="m150 500h50q21 0 36 15t14 35v50q0 21-14 36t-36 14h-50q-21 0-35-14t-15-36v-50q0-21 15-35t35-15z m0 100h50v-50h-50v50z m225-50h500q11 0 18 7t7 18-7 18-18 7h-500q-11 0-18-7t-7-18 7-18 18-7z m-225-300h50q21 0 36 15t14 35v50q0 21-14 36t-36 14h-50q-21 0-35-14t-15-36v-50q0-21 15-35t35-15z m0 100h50v-50h-50v50z m225-50h500q11 0 18 7t7 18-7 18-18 7h-500q-11 0-18-7t-7-18 7-18 18-7z m-225-300h50q21 0 36 15t14 35v50q0 21-14 36t-36 14h-50q-21 0-35-14t-15-36v-50q0-21 15-35t35-15z m0 100h50v-50h-50v50z m225-50h500q11 0 18 7t7 18-7 18-18 7h-500q-11 0-18-7t-7-18 7-18 18-7z" horiz-adv-x="1000" />
<glyph glyph-name="J-2" unicode="&#xe8d8;" d="m313 100q72 0 125 56 30-6 62-6 103 0 177 66t73 159-73 159-177 66-176-66-74-159q0-48 32-114 18-34 18-51 1-37-37-59-15-8-13-25 3-16 19-21 25-5 44-5z" horiz-adv-x="1000" />
<glyph glyph-name="I-2" unicode="&#xe8d9;" d="m173-50h18q92 0 165 55 8 6 10 17t-5 18-16 10-19-5q-43-33-102-43 28 54 27 117t-34 105q-35 46-49 82-18 45-18 94 0 124 103 212t247 88 248-88 102-212-102-212-248-88h-4q-88 2-161 36-24 9-33-13-5-9-1-19t13-14q88-40 186-40h4q164 1 280 104t116 246q0 145-117 248t-283 102-283-102-117-248q0-58 21-113 16-40 56-93 29-37 23-99t-44-103q-10-12-4-26 5-14 21-16z" horiz-adv-x="1000" />
<glyph glyph-name="H-2" unicode="&#xe8da;" d="m374 0h4q11 2 18 12 219 369 497 645 16 18 0 36-18 16-36 0-274-276-488-628-105 102-231 181-8 5-18 3t-16-11q-6-8-3-18t11-16q136-87 245-197 9-7 17-7z" horiz-adv-x="1000" />
<glyph glyph-name="G-2" unicode="&#xe8db;" d="m725 100q93 0 159 74t66 176-66 177-159 73q-29 0-55-8t-49-28-41-38-38-51-32-54-32-59q-24-44-35-65t-34-55-40-50-43-29-51-13q-72 0-123 59t-52 141 52 141 123 59q69 0 132-89 6-9 17-10t18 3q8 6 10 17t-4 18q-76 111-173 111-93 0-159-73t-66-177 66-176 159-74q29 0 55 9t50 28 40 37 38 52 32 53 32 59q24 44 36 65t34 55 40 50 42 29 51 13q72 0 124-59t51-141-51-141-124-59q-69 0-132 89-6 9-16 11t-19-5q-8-5-10-15t4-19q76-111 173-111z" horiz-adv-x="1000" />
<glyph glyph-name="F-2" unicode="&#xe8dc;" d="m125 500h750q11 0 18 7t7 18v150q0 31-22 53t-53 22h-650q-31 0-53-22t-22-53v-150q0-11 7-18t18-7z m25 50v125q0 11 7 18t18 7h650q11 0 18-7t7-18v-125h-700z m25-600h650q31 0 53 22t22 53v400q0 11-7 18t-18 7-18-7-7-18v-400q0-11-7-18t-18-7h-650q-11 0-18 7t-7 18v400q0 11-7 18t-18 7-18-7-7-18v-400q0-31 22-53t53-22z m100 150q11 0 18 7t7 18v250q0 11-7 18t-18 7-18-7-7-18v-250q0-11 7-18t18-7z m150 0q11 0 18 7t7 18v250q0 11-7 18t-18 7-18-7-7-18v-250q0-11 7-18t18-7z m150 0q11 0 18 7t7 18v250q0 11-7 18t-18 7-18-7-7-18v-250q0-11 7-18t18-7z m150 0q11 0 18 7t7 18v250q0 11-7 18t-18 7-18-7-7-18v-250q0-11 7-18t18-7z" horiz-adv-x="1000" />
<glyph glyph-name="E-2" unicode="&#xe8dd;" d="m125 500h750q11 0 18 7t7 18v150q0 31-22 53t-53 22h-650q-31 0-53-22t-22-53v-150q0-11 7-18t18-7z m25 50v125q0 11 7 18t18 7h650q11 0 18-7t7-18v-125h-700z m25-600h650q31 0 53 22t22 53v400q0 11-7 18t-18 7-18-7-7-18v-400q0-11-7-18t-18-7h-650q-11 0-18 7t-7 18v400q0 11-7 18t-18 7-18-7-7-18v-400q0-31 22-53t53-22z" horiz-adv-x="1000" />
<glyph glyph-name="D-2" unicode="&#xe8de;" d="m237-50q8 0 15 5l248 180 248-180q15-10 29 0 15 12 9 28l-94 292 248 180q14 10 9 28-7 17-24 17h-306l-95 292q-5 15-24 15t-24-15l-94-292h-307q-17 0-24-17-5-18 9-28l248-180-94-292q-6-16 9-28 7-5 14-5z" horiz-adv-x="1000" />
</font>
</defs>
</svg>
